<svg width="100" height="100" viewBox="0 0 100 100" fill="none" xmlns="http://www.w3.org/2000/svg">
<rect width="100" height="100" fill="white"/>
<g clip-path="url(#clip0_115_41949)">
<mask id="mask0_115_41949" style="mask-type:luminance" maskUnits="userSpaceOnUse" x="-89" y="-152" width="1003" height="708">
<path d="M-88.3926 -151.34H913.592V555.059H-88.3926V-151.34Z" fill="white"/>
</mask>
<g mask="url(#mask0_115_41949)">
<path d="M67.5768 71.0861C56.2822 81.2689 41.3302 78.3794 33.7251 67.9438C25.3689 56.4771 26.8602 34.5712 36.9504 24.5866C46.4764 15.1597 61.0642 16.6347 70.4736 24.4406C71.0306 24.9022 78.5429 31.3221 79.839 42.1599C81.4326 55.4814 70.6581 68.3081 67.5768 71.0861Z" fill="#4291C6"/>
</g>
<mask id="mask1_115_41949" style="mask-type:luminance" maskUnits="userSpaceOnUse" x="-89" y="-152" width="1003" height="708">
<path d="M-88.3926 -151.34H913.592V555.059H-88.3926V-151.34Z" fill="white"/>
</mask>
<g mask="url(#mask1_115_41949)">
<path d="M63.042 67.6847C62.9242 66.7449 62.3184 65.9308 61.283 65.9308C60.4237 65.9308 59.4037 66.7377 59.5227 67.6847C59.6477 68.6768 59.6858 69.6688 59.6358 70.668C59.5882 71.6149 60.4784 72.4219 61.3948 72.4219C62.3874 72.4219 63.1063 71.6173 63.1539 70.668C63.2039 69.6688 63.167 68.6768 63.042 67.6847Z" fill="white"/>
</g>
<mask id="mask2_115_41949" style="mask-type:luminance" maskUnits="userSpaceOnUse" x="-89" y="-152" width="1003" height="708">
<path d="M-88.3926 -151.34H913.592V555.059H-88.3926V-151.34Z" fill="white"/>
</mask>
<g mask="url(#mask2_115_41949)">
<path d="M33.9849 48.2411C33.9884 56.0565 33.9932 63.8719 33.9968 71.6885C33.998 73.0211 35.1167 74.1021 36.4414 74.1247C36.9769 74.451 37.5125 74.7785 38.0481 75.1049C39.537 74.4795 41.0259 73.8529 42.5147 73.2276C41.5698 71.8285 40.6307 70.8958 39.1894 70.02C36.4973 68.3836 34.0384 72.5951 36.7234 74.2279C37.2471 74.7145 37.7708 75.201 38.2944 75.6875C39.7393 77.8283 43.8096 76.5455 42.7611 73.8102C41.6114 70.8115 39.6929 69.3056 36.4414 69.251C37.2554 70.0639 38.0695 70.8756 38.8848 71.6885C38.88 63.8719 38.8764 56.0565 38.8717 48.2411C38.8705 45.1059 33.9837 45.1 33.9849 48.2411Z" fill="white"/>
</g>
<mask id="mask3_115_41949" style="mask-type:luminance" maskUnits="userSpaceOnUse" x="-89" y="-152" width="1003" height="708">
<path d="M-88.3906 -151.34H913.594V555.059H-88.3906V-151.34Z" fill="white"/>
</mask>
<g mask="url(#mask3_115_41949)">
<path d="M60.4618 66.4132C59.474 66.4571 58.6396 67.2118 58.6396 68.23V70.2782C58.6396 71.2287 59.4775 72.14 60.4618 72.0961C61.4496 72.051 62.2839 71.2975 62.2839 70.2782V68.23C62.2839 67.2795 61.446 66.3693 60.4618 66.4132Z" fill="#99147E"/>
</g>
<mask id="mask4_115_41949" style="mask-type:luminance" maskUnits="userSpaceOnUse" x="-89" y="-152" width="1003" height="708">
<path d="M-88.3906 -151.34H913.594V555.059H-88.3906V-151.34Z" fill="white"/>
</mask>
<g mask="url(#mask4_115_41949)">
<path d="M41.1122 36.3105C41.1348 38.316 44.2626 38.3207 44.2399 36.3105L44.0697 20.8862C44.0483 18.8808 40.9206 18.8748 40.942 20.8862C40.9991 26.0269 41.0551 31.1687 41.1122 36.3105Z" fill="white"/>
</g>
<mask id="mask5_115_41949" style="mask-type:luminance" maskUnits="userSpaceOnUse" x="-89" y="-152" width="1003" height="708">
<path d="M-88.3906 -151.34H913.594V555.059H-88.3906V-151.34Z" fill="white"/>
</mask>
<g mask="url(#mask5_115_41949)">
<path d="M33.9451 26.1245C34.3391 26.4852 34.8556 26.7522 35.4067 26.7285C35.9363 26.7047 36.5028 26.5327 36.8682 26.1245C37.668 25.2309 38.4678 24.3362 39.2675 23.4426C39.9495 22.6819 40.6243 21.913 41.3575 21.1998C41.6967 20.8675 42.0501 20.5495 42.4191 20.2516C42.5476 20.1579 42.6774 20.0665 42.8095 19.9799V36.255C42.8095 36.7831 43.0404 37.3373 43.4153 37.7111C43.7735 38.0694 44.3614 38.3376 44.8768 38.3151C45.4112 38.2913 45.9646 38.1157 46.3371 37.7111C46.7084 37.3088 46.9429 36.8128 46.9429 36.255V20.3501C46.9596 20.3691 46.975 20.3881 46.9917 20.4071C47.4118 20.9019 47.8319 21.3956 48.2533 21.8904C49.0935 22.8789 49.935 23.8674 50.7752 24.8559C51.2584 25.4231 51.7404 25.9904 52.2236 26.5588C52.5497 26.9409 53.1984 27.1616 53.6852 27.1616C54.1922 27.1616 54.7968 26.9373 55.1455 26.5588C55.5073 26.166 55.7763 25.6498 55.7513 25.1016L55.6775 24.5533C55.5799 24.2044 55.4026 23.9018 55.1455 23.6443C53.9553 22.2441 52.764 20.8438 51.5726 19.4435C50.9811 18.747 50.3896 18.0516 49.7981 17.3562C49.5315 17.0429 49.2697 16.7201 48.9674 16.4413C48.7174 16.2122 48.4461 16.0022 48.1664 15.8135C47.8688 15.613 47.5308 15.4836 47.2012 15.3507C46.6918 15.1442 46.1538 15.0718 45.6087 15.0184C45.2374 14.9828 44.8649 15.0007 44.4947 15.0481C43.9782 15.1134 43.4736 15.1834 42.9785 15.3436C42.4953 15.5002 42.0228 15.702 41.5693 15.9274C40.791 16.3167 40.0911 16.8483 39.4211 17.3977C38.8546 17.8629 38.3285 18.3743 37.8239 18.9048C36.4909 20.3015 35.2329 21.7718 33.9451 23.21C33.5798 23.6194 33.3394 24.1083 33.3394 24.6672C33.3394 25.1728 33.5655 25.7768 33.9451 26.1245Z" fill="#99147E"/>
</g>
<mask id="mask6_115_41949" style="mask-type:luminance" maskUnits="userSpaceOnUse" x="-89" y="-152" width="1003" height="708">
<path d="M-88.3926 -151.34H913.592V555.059H-88.3926V-151.34Z" fill="white"/>
</mask>
<g mask="url(#mask6_115_41949)">
<path d="M53.6276 66.9957C53.5835 67.9118 53.5359 68.8268 53.486 69.7417C53.4502 70.405 53.4336 71.0755 53.3872 71.7412C53.2396 71.7626 53.0932 71.7851 52.948 71.8243C52.4374 71.9596 51.9197 72.1827 51.4829 72.4817C50.9033 72.8757 50.4713 73.3017 50.0547 73.857C49.8262 74.162 49.6679 74.4919 49.5203 74.8337C49.2537 74.8313 48.9871 74.8182 48.7229 74.8147L47.2876 74.7957C46.2795 74.7814 45.2715 74.7684 44.2634 74.7542C42.7233 74.734 41.1845 74.7138 39.6444 74.6924C39.2338 73.7882 38.5613 73.0193 37.6961 72.4224C37.1117 72.0177 36.4179 71.7388 35.6978 71.6071C35.8049 65.4258 35.912 59.2432 36.0203 53.0619C36.0513 51.2831 36.0822 49.5055 36.1132 47.7266H37.5104C37.5021 49.1222 37.608 50.539 37.9936 51.8776C38.5209 53.7086 39.6075 55.3427 41.2463 56.3585C42.89 57.3766 45.0168 57.6851 46.871 57.1203C48.6491 56.5804 50.263 55.3261 51.1009 53.6552C52.0304 51.8017 52.1208 49.7547 52.003 47.7266H54.1536C54.1144 54.1524 53.9394 60.5771 53.6276 66.9957ZM48.3445 50.4109C48.2707 50.8523 48.1624 51.2831 48.0076 51.7032C47.8815 51.9678 47.7351 52.2217 47.5673 52.4638C47.3816 52.6798 47.1793 52.8803 46.9615 53.0643C46.7151 53.2375 46.4557 53.3882 46.1843 53.5188C45.9118 53.6173 45.6345 53.6944 45.3512 53.7478C45.0679 53.7703 44.7859 53.7691 44.5038 53.7454C44.1967 53.6885 43.8968 53.6066 43.604 53.4998C43.3434 53.374 43.0935 53.2304 42.8566 53.0655C42.64 52.8815 42.4413 52.681 42.2568 52.465C42.0497 52.1719 41.8724 51.861 41.72 51.537C41.501 50.9615 41.3546 50.3634 41.257 49.7558C41.1797 49.0818 41.1523 48.4042 41.1559 47.7266H48.3575C48.4135 48.6214 48.4373 49.5197 48.3445 50.4109ZM69.4722 45.9099C69.4282 44.9249 68.6712 44.0919 67.6501 44.0919H20.8244C19.871 44.0919 18.957 44.9285 19.001 45.9099C19.0463 46.8948 19.802 47.7266 20.8244 47.7266H26.6681C26.5574 52.3155 26.4479 56.9043 26.3372 61.4932C26.217 66.5507 26.0956 71.6083 25.9742 76.6647C25.9444 77.9249 25.9135 79.1852 25.8837 80.4454C25.8635 81.2998 25.979 82.1115 26.5169 82.8045C26.7561 83.1142 27.043 83.3765 27.3952 83.5616C27.8856 83.8179 28.3093 83.8962 28.8508 83.9627C29.3769 84.028 29.9136 83.99 30.4432 83.9793C31.0752 83.9674 31.706 83.9556 32.338 83.9437C33.6007 83.92 34.8647 83.8962 36.1275 83.8725C41.1975 83.7776 46.2664 83.6826 51.3365 83.5877C52.5993 83.564 53.862 83.5402 55.126 83.5165C56.3733 83.4928 57.7098 83.5841 58.9297 83.2756C60.3199 82.9255 61.3517 81.8931 61.7766 80.5451C62.0622 79.6373 62.0254 78.6476 62.0266 77.7066C62.0266 77.3696 62.0325 77.0326 62.0634 76.6967C62.0956 76.5223 62.1384 76.3502 62.1955 76.1817C62.4122 75.7498 62.5026 75.2727 62.3717 74.7969C62.2551 74.3744 61.9278 73.9176 61.5338 73.7099C60.7019 73.272 59.5022 73.4583 59.0404 74.3626C58.5739 75.2727 58.412 76.241 58.3858 77.2568C58.3692 77.9071 58.4061 78.561 58.3501 79.2101C58.3263 79.3359 58.2954 79.4605 58.2573 79.5827C58.2442 79.6076 58.2299 79.6325 58.2145 79.6563C58.2049 79.6658 58.1954 79.6764 58.1859 79.6859C58.1633 79.699 58.1419 79.7109 58.1204 79.7239C57.999 79.7607 57.8776 79.7904 57.7527 79.8153C56.9517 79.8889 56.1329 79.8628 55.3307 79.8782C54.375 79.896 53.4181 79.9138 52.4624 79.9316C50.5344 79.9672 48.6051 80.004 46.6758 80.0396C42.8185 80.112 38.9612 80.1855 35.1027 80.2579C34.0113 80.2781 32.9188 80.2983 31.8262 80.3184C31.2966 80.3291 30.7682 80.3386 30.2385 80.3481C30.0005 80.3528 29.7601 80.3635 29.5197 80.3635C29.5268 80.0835 29.5447 79.8022 29.5506 79.5257C29.5649 78.9644 29.578 78.402 29.5911 77.8407C29.6185 76.6991 29.6458 75.5587 29.6732 74.4171L29.8363 67.6235C29.9446 63.0774 30.0541 58.5312 30.1636 53.9839C30.2124 51.899 30.2623 49.8128 30.3123 47.7266H32.4677C32.3511 54.4088 32.2356 61.0897 32.119 67.7706C32.0857 69.6776 32.0523 71.5846 32.019 73.4904C32 74.6307 33.2056 75.6074 34.3267 75.2431C34.4231 75.2122 34.5207 75.1861 34.6195 75.1636C34.7326 75.1588 34.8457 75.1588 34.9587 75.1647C35.1039 75.1968 35.2467 75.2371 35.3872 75.2846C35.5383 75.3605 35.6847 75.446 35.8252 75.5409C35.9454 75.6465 36.0584 75.7581 36.1644 75.8767C36.2358 75.9847 36.3012 76.0975 36.3607 76.2114C36.3929 76.3111 36.4214 76.4119 36.444 76.5152C36.5154 77.4954 37.2367 78.2952 38.265 78.3094C42.0723 78.3604 45.8796 78.4316 49.687 78.4613C50.532 78.4684 51.2865 78.2667 51.9364 77.7137C52.3636 77.3518 52.5921 76.8629 52.8004 76.3633C52.8778 76.1971 52.9647 76.0393 53.0646 75.8874C53.1539 75.7889 53.2479 75.694 53.3467 75.6062C53.4598 75.5302 53.5764 75.4614 53.6966 75.3997C53.962 75.3131 54.2298 75.2632 54.5095 75.2217C55.1212 75.1327 55.7032 74.8776 56.1483 74.4421C57.0755 73.5343 56.9945 72.1565 57.0636 70.9628C57.1731 69.0475 57.2707 67.131 57.3564 65.2157C57.5277 61.365 57.6503 57.5131 57.7241 53.6612C57.7622 51.683 57.7872 49.7048 57.7991 47.7266H58.7893C58.731 51.6343 58.6727 55.5408 58.6144 59.4485C58.5977 60.602 58.581 61.7542 58.5632 62.9077C58.5489 63.8582 59.4118 64.7684 60.3865 64.7245C61.3862 64.6805 62.1932 63.927 62.2086 62.9077C62.2693 58.8042 62.3312 54.7007 62.3919 50.5972L62.4348 47.7266H67.6501C68.6034 47.7266 69.5162 46.8912 69.4722 45.9099Z" fill="#99147E"/>
</g>
</g>
<defs>
<clipPath id="clip0_115_41949">
<rect width="61" height="69" fill="white" transform="translate(19 15)"/>
</clipPath>
</defs>
</svg>
