<svg width="100" height="100" viewBox="0 0 100 100" fill="none" xmlns="http://www.w3.org/2000/svg">
<path d="M0 0H100V100H0V0Z" fill="white"/>
<g clip-path="url(#clip0_115_45632)">
<mask id="mask0_115_45632" style="mask-type:luminance" maskUnits="userSpaceOnUse" x="-112" y="-488" width="1124" height="795">
<path d="M-111.193 -487.121H1011.33V306.586H-111.193V-487.121Z" fill="white"/>
</mask>
<g mask="url(#mask0_115_45632)">
<path d="M51.8902 22.6761C51.2169 22.6761 50.7395 23.2201 50.7022 23.8641C50.4849 27.7281 50.3582 31.5961 50.3209 35.4668C50.3062 36.9948 52.6809 36.9961 52.6955 35.4668C52.7329 31.5961 52.8595 27.7281 53.0782 23.8641C53.1142 23.2228 52.5062 22.6761 51.8902 22.6761Z" fill="white"/>
</g>
<mask id="mask1_115_45632" style="mask-type:luminance" maskUnits="userSpaceOnUse" x="-112" y="-488" width="1124" height="795">
<path d="M-111.193 -487.121H1011.33V306.586H-111.193V-487.121Z" fill="white"/>
</mask>
<g mask="url(#mask1_115_45632)">
<path d="M62.6027 40.888C61.0973 39.9054 59.0773 39.9414 57.54 40.8187C56.212 41.5747 57.408 43.628 58.7387 42.8694C59.5773 42.3907 60.5827 42.3987 61.404 42.9387C62.1253 43.412 62.4973 44.2814 62.4747 45.144C62.4587 45.7854 63.0333 46.332 63.6627 46.332C64.32 46.332 64.8333 45.788 64.8493 45.144C64.8947 43.444 64.024 41.816 62.6027 40.888Z" fill="white"/>
</g>
<mask id="mask2_115_45632" style="mask-type:luminance" maskUnits="userSpaceOnUse" x="-112" y="-488" width="1124" height="795">
<path d="M-111.195 -487.121H1011.32V306.586H-111.195V-487.121Z" fill="white"/>
</mask>
<g mask="url(#mask2_115_45632)">
<path d="M67.9211 58.9605C63.2357 58.7805 58.5451 58.7671 53.8584 58.9178C53.2171 58.9391 52.6704 59.4485 52.6704 60.1058C52.6704 60.7325 53.2144 61.3138 53.8584 61.2925C58.5451 61.1418 63.2357 61.1551 67.9211 61.3351C68.5624 61.3605 69.1091 60.7725 69.1091 60.1485C69.1091 59.4845 68.5651 58.9845 67.9211 58.9605Z" fill="white"/>
</g>
<mask id="mask3_115_45632" style="mask-type:luminance" maskUnits="userSpaceOnUse" x="-112" y="-488" width="1124" height="795">
<path d="M-111.195 -487.121H1011.32V306.586H-111.195V-487.121Z" fill="white"/>
</mask>
<g mask="url(#mask3_115_45632)">
<path d="M68.1028 52.9406C62.9921 52.6993 57.8761 52.5979 52.7588 52.6353C51.2321 52.6459 51.2281 55.0206 52.7588 55.0099C57.8761 54.9726 62.9921 55.0739 68.1028 55.3153C68.7441 55.3459 69.2908 54.7486 69.2908 54.1286C69.2908 53.4593 68.7455 52.9713 68.1028 52.9406Z" fill="white"/>
</g>
<mask id="mask4_115_45632" style="mask-type:luminance" maskUnits="userSpaceOnUse" x="-112" y="-488" width="1124" height="795">
<path d="M-111.193 -487.121H1011.33V306.586H-111.193V-487.121Z" fill="white"/>
</mask>
<g mask="url(#mask4_115_45632)">
<path d="M43.2141 41.4809C42.5621 39.8222 41.9288 38.1556 41.3274 36.4769C40.1314 33.1409 39.0421 29.7649 38.0648 26.3582C37.5141 24.4436 37.0008 22.5182 36.5194 20.5849C36.1514 19.1022 33.8608 19.7302 34.2301 21.2156C35.9128 27.9836 38.0194 34.6422 40.5448 41.1422C41.2141 42.8649 42.0474 44.6302 42.0808 46.5102C42.1074 48.0356 44.4821 48.0409 44.4554 46.5102C44.4234 44.7462 43.8514 43.1036 43.2141 41.4809Z" fill="white"/>
</g>
<mask id="mask5_115_45632" style="mask-type:luminance" maskUnits="userSpaceOnUse" x="-112" y="-488" width="1124" height="795">
<path d="M-111.195 -487.121H1011.32V306.586H-111.195V-487.121Z" fill="white"/>
</mask>
<g mask="url(#mask5_115_45632)">
<path d="M32.1555 68.5316C31.9769 67.8823 31.3235 67.5676 30.6955 67.7023C26.4702 68.6036 22.0662 68.7409 17.7969 68.0703C17.1635 67.9716 16.5195 68.2329 16.3369 68.8996C16.1809 69.4636 16.5289 70.2609 17.1662 70.3609C21.8809 71.1009 26.6555 70.9876 31.3262 69.9916C31.9542 69.8583 32.3182 69.1236 32.1555 68.5316Z" fill="white"/>
</g>
<mask id="mask6_115_45632" style="mask-type:luminance" maskUnits="userSpaceOnUse" x="-112" y="-488" width="1124" height="795">
<path d="M-111.195 -487.121H1011.32V306.586H-111.195V-487.121Z" fill="white"/>
</mask>
<g mask="url(#mask6_115_45632)">
<path d="M64.7885 74.114C50.7525 86.806 32.1712 83.2033 22.7205 70.198C12.3338 55.906 14.1872 28.602 26.7272 16.1567C38.5658 4.40732 56.6952 6.24598 68.3885 15.974C69.0805 16.55 78.4165 24.5513 80.0272 38.0593C82.0085 54.6633 68.6178 70.6513 64.7885 74.114Z" fill="#A656B1"/>
</g>
<mask id="mask7_115_45632" style="mask-type:luminance" maskUnits="userSpaceOnUse" x="-112" y="-488" width="1124" height="795">
<path d="M-111.195 -487.121H1011.32V306.586H-111.195V-487.121Z" fill="white"/>
</mask>
<g mask="url(#mask7_115_45632)">
<path d="M74.6673 13.0675C74.6713 13.0675 74.6766 13.0689 74.6806 13.0702C74.8166 13.0862 74.718 13.1995 74.6673 13.0675ZM56.8006 43.9649C56.8566 43.2929 56.994 42.4635 57.3433 41.8729C57.966 40.8209 59.63 40.5809 60.7286 40.7915C61.974 41.0302 63.01 41.8249 63.522 42.9915C63.9766 44.0249 64.0833 45.5822 63.1193 46.3649C63.0513 46.4209 62.998 46.4862 62.954 46.5582C60.99 46.1822 58.9686 46.2929 56.9806 46.3582L56.9513 46.3595C56.7793 45.5689 56.7326 44.7742 56.8006 43.9649ZM31.8286 61.2329C31.814 62.5595 31.79 63.8862 31.754 65.2115C31.7273 66.1929 31.8526 67.3969 31.4153 68.3089C31.018 69.1369 29.9833 69.2409 29.1713 69.3169C27.806 69.4449 26.4353 69.5275 25.0646 69.5769C23.754 69.6235 22.4406 69.6355 21.13 69.6129C20.5033 69.6022 19.878 69.5835 19.2513 69.5569C18.7286 69.5355 18.17 69.5489 17.6713 69.4369C17.3486 69.3649 17.098 69.3075 17.0366 69.0089C16.9233 68.4475 16.99 67.8049 16.9753 67.2315C16.9393 65.8755 16.9126 64.5182 16.8953 63.1622C16.8606 60.4795 16.8646 57.7955 16.9046 55.1129C16.9273 53.6049 16.962 52.0982 17.0086 50.5915C17.0366 49.6795 16.9646 48.4729 17.546 47.7035C17.8433 47.3102 18.3353 47.1875 18.8033 47.1249C19.506 47.0302 20.226 46.9969 20.9353 46.9582C21.8073 46.9089 22.682 46.8849 23.5553 46.8822C23.098 49.2769 22.4966 51.7209 22.5273 54.1609C22.5606 56.7209 22.814 59.2915 22.9713 61.8449C23.0033 62.3502 23.3793 62.7822 23.9073 62.7822C24.3913 62.7822 24.8753 62.3529 24.8446 61.8449C24.69 59.3489 24.4606 56.8422 24.4033 54.3409C24.3473 51.8582 24.9953 49.3849 25.4406 46.9569C25.4433 46.9409 25.4446 46.9262 25.4473 46.9102C25.45 46.9102 25.4526 46.9102 25.4553 46.9115C25.5566 46.9142 25.65 46.9035 25.734 46.8809C26.5073 46.8782 27.2806 46.8835 28.054 46.8995C28.6446 46.9115 29.2353 46.9262 29.826 46.9529C30.2633 46.9742 30.774 47.0075 31.1073 47.2809C31.67 47.7435 31.7686 48.6769 31.8046 49.3982C31.8686 50.6262 31.834 51.8635 31.8406 53.0929C31.8553 55.8062 31.8606 58.5195 31.8286 61.2329ZM42.446 46.8355C40.374 39.9075 38.3033 32.9782 36.2313 26.0502C35.698 24.2649 35.1633 22.4795 34.63 20.6942L44.4873 15.7249C44.4433 18.8235 44.5646 21.9315 44.6073 25.0195L44.7993 39.0409L44.9046 46.7555C44.086 46.7822 43.266 46.8089 42.446 46.8355ZM76.7046 13.1662C76.6606 12.4075 76.3633 11.7129 75.6766 11.3275C75.0713 10.9889 74.3433 10.9742 73.6713 10.9115C72.918 10.8409 72.1646 10.7742 71.41 10.7102C69.8406 10.5782 68.2713 10.4622 66.7006 10.3595C60.5073 9.95686 54.298 9.78887 48.0913 9.8542C47.3046 9.8622 46.518 9.8742 45.7313 9.8902C45.15 9.90087 44.7766 10.3435 44.726 10.8942C44.6473 11.7422 44.5926 12.5929 44.5526 13.4449L32.998 19.2702C32.8606 19.3409 32.7513 19.4462 32.6713 19.5715C32.4606 19.7875 32.3553 20.1022 32.47 20.4849C34.5886 27.5715 36.7073 34.6582 38.826 41.7449C39.434 43.7782 40.042 45.8102 40.65 47.8435C40.7313 48.1169 40.89 48.3035 41.0833 48.4155C41.2326 48.6102 41.47 48.7409 41.7953 48.7302C46.014 48.5915 50.2313 48.4529 54.45 48.3142C56.45 48.2489 58.462 48.1129 60.4633 48.1742C62.0433 48.2222 64.0913 48.3955 65.2953 49.5502C65.5166 49.7622 65.7686 50.0462 65.8126 50.3595C65.8566 50.6769 65.7326 50.8729 65.5353 51.0529C65.0606 51.4889 64.2326 51.6409 63.5646 51.7502C63.4766 51.7649 63.3966 51.7955 63.3233 51.8395C62.178 51.8329 61.0313 51.8409 59.8886 51.8289L52.486 51.7542C51.2806 51.7422 51.2793 53.6142 52.486 53.6262L64.1313 53.7449C65.6726 53.7609 67.502 53.5849 68.8753 54.4289C69.738 54.9595 70.438 56.3049 69.5526 57.0875C69.05 57.5315 68.3193 57.6582 67.6713 57.6889C66.7646 57.7342 65.8686 57.6849 64.9726 57.7942C64.6513 57.7875 64.33 57.7849 64.01 57.7795C62.9206 57.7609 61.8326 57.7542 60.7433 57.7555C58.2633 57.7609 55.7833 57.8209 53.3046 57.9315C52.1046 57.9835 52.098 59.8569 53.3046 59.8035C57.0366 59.6382 60.7726 59.5889 64.506 59.6622C64.662 59.7009 64.8286 59.7062 64.9953 59.6742C65.0073 59.6715 65.0193 59.6702 65.0326 59.6675C66.0526 59.6662 67.6673 59.6209 68.1313 60.5929C68.7153 61.8155 67.2233 62.8409 66.262 63.1635C64.378 63.7942 62.2886 63.8862 60.3246 63.7262C60.2726 63.7209 60.222 63.7249 60.1726 63.7302C59.5806 63.6675 58.99 63.6449 58.4486 63.6075C56.678 63.4849 54.9006 63.4769 53.1286 63.5742C51.93 63.6382 51.922 65.5115 53.1286 65.4462C54.546 65.3689 55.9673 65.3569 57.386 65.4195C58.5926 65.4729 59.91 65.4635 61.0766 65.8129C61.5673 65.9595 62.4993 66.6755 61.7873 67.0435C61.3873 67.2515 60.8326 67.2235 60.3966 67.2462C59.67 67.2835 58.942 67.3195 58.214 67.3529C52.5753 67.6075 46.9273 67.7129 41.2833 67.6182C39.7926 67.5929 38.254 67.6449 36.7753 67.4315C35.6126 67.2635 34.3526 66.8395 33.63 65.8595C33.65 65.1595 33.646 64.4569 33.6606 63.7649C33.722 60.8115 33.7313 57.8555 33.722 54.9022C33.7166 53.2329 33.7193 51.5635 33.6926 49.8955C33.6753 48.7422 33.566 47.4609 32.8833 46.4875C31.9486 45.1529 30.446 45.0955 28.9566 45.0502C27.5406 45.0075 26.1233 44.9995 24.706 45.0195C23.4486 44.9942 22.19 45.0142 20.9353 45.0849C19.63 45.1582 18.0086 45.0955 16.8673 45.8275C15.8993 46.4489 15.4366 47.5369 15.2753 48.6382C15.0766 49.9955 15.1086 51.3929 15.078 52.7609C15.0086 55.7155 14.9846 58.6702 15.0073 61.6249C15.018 63.0715 15.0393 64.5195 15.0713 65.9662C15.0873 66.6889 15.106 67.4129 15.1286 68.1355C15.1486 68.8382 15.1206 69.5942 15.53 70.2035C16.254 71.2822 17.6313 71.3529 18.8046 71.4089C20.2353 71.4782 21.666 71.5062 23.098 71.4929C24.5886 71.4795 26.078 71.4209 27.566 71.3182C28.7953 71.2329 30.1513 71.2315 31.3073 70.7609C32.4606 70.2902 33.154 69.3382 33.4126 68.1635C35.2233 69.3595 37.642 69.4115 39.8273 69.4609C43.0433 69.5355 46.2606 69.5422 49.478 69.4929C52.694 69.4435 55.91 69.3369 59.1233 69.1822C60.4246 69.1195 62.1273 69.2769 63.1753 68.3435C63.9873 67.6222 64.058 66.4982 63.6153 65.5915C64.614 65.5009 65.602 65.3235 66.5446 65.0369C68.3486 64.4902 69.954 63.2395 70.0993 61.2369C70.1566 60.4369 69.9006 59.7729 69.4593 59.2515C69.7806 59.1435 70.0926 58.9955 70.3953 58.7902C71.9566 57.7235 72.2286 55.7249 71.2046 54.1702C70.282 52.7689 68.7753 52.1969 67.1966 51.9915C67.518 51.5702 67.7086 51.0529 67.6873 50.4235C67.6353 48.8702 66.4326 47.8395 65.078 47.2182C65.8273 46.1969 65.9553 44.7555 65.7593 43.5422C65.5233 42.0809 64.686 40.7462 63.51 39.8595C62.3353 38.9755 60.786 38.5889 59.33 38.7582C57.774 38.9409 56.1193 39.6715 55.4526 41.1795C54.734 42.8062 54.6113 44.6782 54.9193 46.4262L51.9966 46.5222C51.998 46.4902 51.998 46.4569 51.9966 46.4222C51.8113 41.9089 51.638 37.3942 51.4753 32.8795C51.394 30.6075 51.3153 28.3355 51.2393 26.0622C51.222 25.5515 51.1833 25.0355 51.1966 24.5235C51.2046 24.2315 51.2353 24.0129 51.4366 23.8809C51.662 23.7342 52.0673 23.6675 52.3793 23.6009C52.8473 23.5009 53.29 23.3782 53.7313 23.1875C55.2593 22.5275 56.4926 21.1715 57.006 19.5849C58.334 19.7115 59.6686 19.7702 61.0033 19.7515C61.7713 19.7409 62.538 19.7062 63.3033 19.6462C63.7153 19.6155 64.126 19.5755 64.5366 19.5302C64.7126 19.5102 64.8886 19.4889 65.0646 19.4675C65.1246 19.4595 65.1846 19.4515 65.2446 19.4435C65.2766 19.5595 65.3073 19.6769 65.346 19.7795C65.462 20.0849 65.594 20.3889 65.754 20.6729C66.0993 21.2875 66.5673 21.8249 67.126 22.2529C67.902 22.8449 68.8793 23.1809 69.8526 23.1689C69.85 24.7369 69.8473 26.3062 69.8433 27.8742C69.8406 29.1675 71.85 29.1689 71.8526 27.8742C71.8566 25.9062 71.8606 23.9382 71.8646 21.9702C71.866 21.3609 71.2153 20.7755 70.5926 21.0022C69.5566 21.3795 68.482 20.9955 67.802 20.1422C67.4246 19.6689 67.2566 19.1395 67.0753 18.5769C66.814 17.7635 66.1886 17.3169 65.3273 17.4235C62.3006 17.7995 59.266 17.8449 56.234 17.4942C55.8406 17.4489 55.326 17.8355 55.2646 18.2315C55.034 19.7022 54.0393 21.0315 52.5886 21.4835C51.806 21.7289 50.9726 21.7649 50.2753 22.2449C49.3513 22.8822 49.1646 23.9182 49.1926 24.9715C49.3166 29.5475 49.5073 34.1235 49.682 38.6969C49.7793 41.2729 49.882 43.8475 49.9873 46.4222C49.99 46.4809 49.998 46.5342 50.0073 46.5875L49.8406 46.5929C48.8646 46.6249 47.8886 46.6569 46.914 46.6889C46.786 37.4035 46.6526 28.1195 46.5326 18.8342C46.502 16.5169 46.494 14.1969 46.6553 11.8849C52.3406 11.7942 58.03 11.8929 63.7086 12.1929C66.6713 12.3489 69.6313 12.5595 72.586 12.8222C73.1486 12.8715 73.826 12.9009 74.318 12.9822C74.4313 13.0009 74.5473 13.0489 74.6593 13.0662C74.6966 13.3062 74.698 13.5555 74.698 13.8129L74.682 18.3782C74.6393 30.3102 74.5966 42.2422 74.554 54.1742C74.542 57.5222 74.53 60.8702 74.518 64.2182C74.5153 65.0102 74.5126 65.8009 74.51 66.5929C74.51 66.7182 74.5086 66.8449 74.5086 66.9702C74.4393 66.9809 74.3793 66.9902 74.35 66.9929C74.1126 67.0089 73.8753 67.0249 73.638 67.0395C71.9766 67.1515 70.3153 67.2622 68.654 67.3742C68.1126 67.4102 67.65 67.8102 67.65 68.3795C67.65 68.8942 68.11 69.4195 68.654 69.3835C70.1673 69.2822 71.6806 69.1809 73.194 69.0795C73.9073 69.0315 74.7473 69.0902 75.4366 68.8875C76.31 68.6302 76.5153 67.8649 76.518 67.0489L76.5513 57.6435C76.574 51.4035 76.5953 45.1635 76.618 38.9249L76.6846 20.1129C76.69 18.5609 76.6953 17.0089 76.7006 15.4569C76.7046 14.6969 76.7473 13.9235 76.7046 13.1662Z" fill="#99147E"/>
</g>
<mask id="mask8_115_45632" style="mask-type:luminance" maskUnits="userSpaceOnUse" x="-112" y="-488" width="1124" height="795">
<path d="M-111.195 -487.121H1011.32V306.586H-111.195V-487.121Z" fill="white"/>
</mask>
<g mask="url(#mask8_115_45632)">
<path d="M70.9583 32.5442C70.4903 32.4162 69.7956 32.7042 69.7223 33.2455C69.6236 33.9788 69.5716 34.6948 69.6209 35.4335C69.6583 35.9748 70.0569 36.4375 70.6263 36.4375C71.1423 36.4375 71.6676 35.9775 71.6316 35.4335C71.5943 34.8868 71.5863 34.3242 71.6596 33.7802C71.7329 33.2428 71.5316 32.7015 70.9583 32.5442Z" fill="#99147E"/>
</g>
</g>
<defs>
<clipPath id="clip0_115_45632">
<rect width="65.2267" height="73.9967" fill="white" transform="translate(15 8)"/>
</clipPath>
</defs>
</svg>
