<svg width="100" height="100" viewBox="0 0 100 100" fill="none" xmlns="http://www.w3.org/2000/svg">
<rect width="100" height="100" fill="white"/>
<g clip-path="url(#clip0_115_49343)">
<mask id="mask0_115_49343" style="mask-type:luminance" maskUnits="userSpaceOnUse" x="-107" y="-380" width="1124" height="795">
<path d="M-106.035 -379.23H1016.48V414.477H-106.035V-379.23Z" fill="white"/>
</mask>
<g mask="url(#mask0_115_49343)">
<path d="M25.3509 53.4304C25.8522 57.0677 23.8309 59.9677 21.3069 62.2371C16.8869 66.2131 16.2242 67.6424 15.7909 68.6544C14.6655 71.2731 14.7109 74.4731 16.1269 77.0877C18.3642 81.2171 24.2242 84.1824 29.4882 84.0917C33.7189 84.0197 35.9189 81.6464 36.6282 80.8197C37.7642 79.4957 40.2682 74.8384 40.3949 74.5971C43.5655 68.5464 47.9122 67.4277 52.0455 68.0477C58.9682 69.0864 65.5669 72.4944 72.6509 69.0851C82.4869 64.3504 88.2589 50.2477 84.2842 41.2211C80.6669 33.0051 69.8295 28.4171 59.0295 33.0651C55.4309 34.6131 52.4215 37.2251 46.5855 40.4891C44.1082 41.8731 40.1375 42.9264 36.7789 42.4811C34.9415 42.2371 32.5149 41.8144 29.3469 38.7251C28.3495 37.7531 27.0015 35.8251 25.2095 34.9291C22.4535 33.5491 19.6935 34.9424 18.7855 37.3984C18.0975 39.2571 18.6482 41.7904 19.7869 43.7037C21.1695 46.0277 24.6695 48.4891 25.3509 53.4304Z" fill="#4291C6"/>
</g>
<mask id="mask1_115_49343" style="mask-type:luminance" maskUnits="userSpaceOnUse" x="-107" y="-380" width="1124" height="795">
<path d="M-106.037 -379.23H1016.48V414.477H-106.037V-379.23Z" fill="white"/>
</mask>
<g mask="url(#mask1_115_49343)">
<path d="M51.9505 77.8477C51.9491 78.0464 51.9491 78.2464 51.9438 78.445C51.9385 78.637 51.9198 78.8877 51.9131 78.9224C51.9051 78.9704 51.8158 79.2957 51.8371 79.2584C51.8091 79.3264 51.7811 79.373 51.7651 79.3957C51.7505 79.3917 51.5238 79.533 51.5731 79.525C51.5038 79.5504 51.4318 79.5704 51.3625 79.589C51.3358 79.597 51.0785 79.6517 51.0998 79.6504C50.4465 79.7597 49.4091 79.713 48.6358 79.7224C47.6491 79.7357 46.6611 79.7424 45.6745 79.7424C41.6945 79.7437 37.7145 79.6397 33.7411 79.4304C31.7691 79.3264 29.7998 79.1957 27.8331 79.041C27.4105 79.0077 26.9878 78.977 26.5665 78.9357C26.4718 78.9264 26.3758 78.917 26.2798 78.905C26.3438 78.913 26.4825 78.9424 26.2078 78.8917C26.0185 78.8557 25.8318 78.821 25.6465 78.7704C25.5558 78.745 25.4665 78.7157 25.3771 78.6864C25.3771 78.6877 25.3251 78.665 25.2865 78.6504C25.2398 78.625 25.1438 78.5757 25.1305 78.5677C25.0838 78.5397 25.0371 78.5117 24.9918 78.481C25.0598 78.5184 24.8145 78.281 24.8371 78.3277C24.7985 78.2717 24.7638 78.209 24.7331 78.149C24.6865 78.061 24.7145 78.1304 24.6665 77.9744C24.4251 77.1984 24.4678 76.1517 24.4291 75.2224C24.3918 74.3517 24.3625 73.4797 24.3398 72.6077C31.4691 72.5584 38.5985 72.5424 45.7278 72.5637C47.8158 72.569 49.9038 72.5784 51.9905 72.5904L51.9611 76.4704C51.9571 76.929 51.9545 77.389 51.9505 77.8477ZM54.6771 71.8437C54.6958 69.417 54.7145 66.989 54.7331 64.561C54.7465 62.8357 52.0665 62.8344 52.0531 64.561L52.0118 69.9104C44.5265 69.8677 37.0398 69.8624 29.5545 69.8957C27.7985 69.9037 26.0425 69.9157 24.2865 69.9277C24.2691 68.3717 24.2705 66.8157 24.2931 65.2584C24.3051 64.5344 23.6705 63.9184 22.9531 63.9184C22.2171 63.9184 21.6238 64.5317 21.6131 65.2584C21.5811 67.3757 21.5865 69.493 21.6318 71.609C21.6758 73.633 21.6478 75.713 21.9025 77.7237C22.0278 78.7197 22.3451 79.705 23.1185 80.397C23.7998 81.0077 24.6705 81.3437 25.5665 81.4877C27.6051 81.8157 29.7105 81.8717 31.7705 81.9984C36.0385 82.2597 40.3131 82.401 44.5891 82.421C46.6545 82.4304 48.7465 82.4877 50.8078 82.3557C51.7331 82.297 52.6385 82.1117 53.3785 81.521C54.2398 80.833 54.5371 79.8117 54.6105 78.7517C54.6878 77.637 54.6411 76.5037 54.6505 75.3877C54.6598 74.2064 54.6678 73.025 54.6771 71.8437Z" fill="#99147E"/>
</g>
<mask id="mask2_115_49343" style="mask-type:luminance" maskUnits="userSpaceOnUse" x="-107" y="-380" width="1124" height="795">
<path d="M-106.037 -379.23H1016.48V414.477H-106.037V-379.23Z" fill="white"/>
</mask>
<g mask="url(#mask2_115_49343)">
<path d="M26.9037 49.8765C26.8464 47.1419 26.7904 44.4072 26.733 41.6712C26.6197 36.2019 26.5064 30.7325 26.3917 25.2619C26.353 23.3739 23.413 23.3672 23.453 25.2619C23.5637 30.5979 23.6744 35.9352 23.785 41.2712C23.8397 43.8725 23.8944 46.4739 23.9477 49.0765C23.9997 51.5765 24.4197 54.4005 23.7557 56.8392C23.2584 58.6659 26.093 59.4459 26.5904 57.6205C27.2677 55.1299 26.957 52.4245 26.9037 49.8765Z" fill="white"/>
</g>
<mask id="mask3_115_49343" style="mask-type:luminance" maskUnits="userSpaceOnUse" x="-107" y="-380" width="1124" height="795">
<path d="M-106.035 -379.23H1016.48V414.477H-106.035V-379.23Z" fill="white"/>
</mask>
<g mask="url(#mask3_115_49343)">
<path d="M70.1753 48.7177C65.2967 53.4657 59.7873 57.9564 52.9567 59.363C51.3607 59.691 52.0353 62.1337 53.63 61.8057C60.8687 60.3164 66.794 55.543 71.9673 50.5097C73.138 49.3697 71.3447 47.579 70.1753 48.7177Z" fill="white"/>
</g>
<mask id="mask4_115_49343" style="mask-type:luminance" maskUnits="userSpaceOnUse" x="-107" y="-380" width="1124" height="795">
<path d="M-106.037 -379.23H1016.48V414.477H-106.037V-379.23Z" fill="white"/>
</mask>
<g mask="url(#mask4_115_49343)">
<path d="M36.132 76.3162C35.9893 75.8762 35.6427 75.5562 35.224 75.4575C35.2413 75.4135 35.256 75.3682 35.2667 75.3215C35.4187 74.6548 35.0667 74.0348 34.4173 73.8255C32.7853 73.2988 31.216 74.9335 31.8053 76.5415C32.34 78.0042 33.9733 78.1522 35.2827 77.8122C35.8987 77.6522 36.332 76.9348 36.132 76.3162Z" fill="white"/>
</g>
<mask id="mask5_115_49343" style="mask-type:luminance" maskUnits="userSpaceOnUse" x="-107" y="-380" width="1124" height="795">
<path d="M-106.035 -379.23H1016.48V414.477H-106.035V-379.23Z" fill="white"/>
</mask>
<g mask="url(#mask5_115_49343)">
<path d="M70.5992 47.3518V47.3478C70.5832 47.1491 70.3365 47.0131 70.0632 47.0518C70.0339 47.0558 70.0032 47.0611 69.9739 47.0651C69.9392 47.0705 69.9152 47.0745 69.8859 47.0785C69.6592 47.1358 69.4285 47.1878 69.2019 47.2465C67.8765 47.5878 66.5752 47.9758 65.2659 48.3411C64.4619 48.5665 63.7539 48.9585 63.2032 49.4545C59.9539 52.3918 56.2939 55.0345 52.0472 57.2545C48.3325 59.1971 44.3312 60.6345 39.9792 61.4438C36.8965 62.0171 33.8192 62.2131 30.7552 61.8705C26.7379 61.4225 23.3019 60.1465 20.3112 58.2331C19.9125 57.9785 19.4819 57.7491 19.0139 57.5651L18.8699 57.5078C18.3925 57.3198 17.8205 57.7065 18.0259 58.0758C18.0352 58.0945 18.0459 58.1118 18.0565 58.1305C18.2405 58.4278 18.5819 58.8918 18.8579 59.1451C22.0259 62.0465 26.1379 63.9425 31.1165 64.8491C37.3352 65.9811 43.5152 65.4145 49.6219 63.4305C56.7032 61.1291 62.5032 57.5811 67.3152 53.1078C68.1459 52.3358 68.9272 51.5358 69.7019 50.7331C70.3379 50.0731 70.6752 49.2931 70.6565 48.5158C70.6459 48.1278 70.6285 47.7398 70.5992 47.3518Z" fill="#99147E"/>
</g>
<mask id="mask6_115_49343" style="mask-type:luminance" maskUnits="userSpaceOnUse" x="-107" y="-380" width="1124" height="795">
<path d="M-106.035 -379.23H1016.48V414.477H-106.035V-379.23Z" fill="white"/>
</mask>
<g mask="url(#mask6_115_49343)">
<path d="M77.4565 55.3237L76.3819 42.553C76.3525 42.209 76.2752 41.8677 76.1192 41.5544C75.5485 40.4104 74.3192 39.777 73.0712 39.8597L59.3125 40.761C57.5565 40.877 56.2605 42.3437 56.5072 43.993C56.7339 45.5117 58.2712 46.5704 59.9125 46.4637L66.1139 46.0557C66.1285 46.0557 66.1365 46.0704 66.1285 46.081C66.1285 46.081 65.0752 47.3757 63.6832 49.085C64.0365 49.0464 64.3965 49.033 64.7592 49.037C65.2139 49.0424 65.6112 49.265 65.9099 49.5944C66.1472 49.857 66.4259 50.077 66.7525 50.2117C67.4965 50.5197 68.0499 51.2237 67.8699 52.169C67.8539 52.249 67.8339 52.325 67.8179 52.4037C67.8165 52.469 67.8045 52.537 67.7965 52.605L70.8019 49.829C70.8139 49.8344 70.8165 49.8357 70.8285 49.8397L71.3245 55.7264C71.3912 56.5144 71.7939 57.205 72.3925 57.685C72.9912 58.1664 73.7845 58.4344 74.6312 58.3797C76.3245 58.2677 77.5885 56.8997 77.4565 55.3237Z" fill="#99147E"/>
</g>
<mask id="mask7_115_49343" style="mask-type:luminance" maskUnits="userSpaceOnUse" x="-107" y="-380" width="1124" height="795">
<path d="M-106.035 -379.23H1016.48V414.477H-106.035V-379.23Z" fill="white"/>
</mask>
<g mask="url(#mask7_115_49343)">
<path d="M41.2513 74.0873C40.586 73.8193 39.7273 73.9499 39.0233 73.9539C37.5527 73.9606 36.082 73.9686 34.6127 73.9753C34.4367 73.9766 34.2807 74.0073 34.1433 74.0593C33.5207 74.0873 32.8193 74.6673 32.8993 75.3473C32.95 75.7686 32.9993 76.1913 33.05 76.6126C33.134 77.3246 33.574 77.8806 34.3407 77.9046C35.762 77.9486 37.1847 77.9699 38.6073 77.9659C39.3127 77.9633 40.0367 77.9953 40.7407 77.9393C41.798 77.8553 42.2607 77.1179 42.262 76.1233C42.2633 75.2819 42.1367 74.4446 41.2513 74.0873Z" fill="#99147E"/>
</g>
<mask id="mask8_115_49343" style="mask-type:luminance" maskUnits="userSpaceOnUse" x="-107" y="-380" width="1124" height="795">
<path d="M-106.035 -379.23H1016.48V414.477H-106.035V-379.23Z" fill="white"/>
</mask>
<g mask="url(#mask8_115_49343)">
<path d="M54.9759 20.7852C54.8439 19.1119 54.1986 17.6359 52.5452 16.9959C51.7679 16.6946 50.8826 16.6666 50.0599 16.5812C49.1879 16.4919 48.3132 16.4132 47.4386 16.3466C43.9372 16.0786 40.4239 15.9839 36.9132 16.0026C35.1892 16.0119 33.4652 16.0479 31.7412 16.1052C30.0452 16.1599 28.3292 16.1719 26.6399 16.3359C24.9972 16.4946 23.4519 17.0692 22.5866 18.5652C21.8866 19.7772 21.7639 21.2386 21.7559 22.6079C21.7359 26.1399 21.7892 29.6732 21.8066 33.2052L21.9092 54.5372C21.9146 55.4306 21.9186 56.3239 21.9226 57.2172C21.9319 58.9412 24.6119 58.9452 24.6039 57.2172C24.5706 50.4039 24.5372 43.5906 24.5039 36.7772C24.4879 33.3706 24.4706 29.9639 24.4546 26.5572C24.4519 25.9319 24.4386 25.3052 24.4292 24.6786C30.6719 24.6706 36.9159 24.6626 43.1586 24.6559C44.8106 24.6532 46.4612 24.6519 48.1132 24.6492C48.9052 24.6479 49.6986 24.6479 50.4906 24.6466C51.0946 24.6452 51.7212 24.6679 52.3172 24.5466C52.3119 26.1666 52.3039 27.7879 52.2932 29.4092C52.2479 36.2026 52.1546 42.9946 52.0132 49.7866C51.9946 50.6439 51.9759 51.5012 51.9572 52.3586C51.9399 53.0826 52.5839 53.6986 53.2972 53.6986C54.0372 53.6986 54.6212 53.0852 54.6372 52.3586C54.7986 45.2372 54.9066 38.1146 54.9626 30.9919C54.9759 29.2439 54.9866 27.4972 54.9932 25.7492C54.9999 24.1052 55.1052 22.4252 54.9759 20.7852Z" fill="#99147E"/>
</g>
</g>
<defs>
<clipPath id="clip0_115_49343">
<rect width="70.5524" height="68.0934" fill="white" transform="translate(15 16)"/>
</clipPath>
</defs>
</svg>
