<svg width="100" height="100" viewBox="0 0 100 100" fill="none" xmlns="http://www.w3.org/2000/svg">
<rect width="100" height="100" fill="white"/>
<g clip-path="url(#clip0_115_53068)">
<mask id="mask0_115_53068" style="mask-type:luminance" maskUnits="userSpaceOnUse" x="-104" y="-275" width="1124" height="794">
<path d="M-103.041 -274.875H1019.48V518.832H-103.041V-274.875Z" fill="white"/>
</mask>
<g mask="url(#mask0_115_53068)">
<path d="M30.4718 39.9769C30.4211 37.3529 26.3385 37.3449 26.3891 39.9769C26.6051 51.1435 26.9731 62.3062 27.4958 73.4622C27.6171 76.0782 31.7011 76.0929 31.5771 73.4622C31.0558 62.3062 30.6878 51.1435 30.4718 39.9769Z" fill="white"/>
</g>
<mask id="mask1_115_53068" style="mask-type:luminance" maskUnits="userSpaceOnUse" x="-104" y="-275" width="1124" height="794">
<path d="M-103.043 -274.875H1019.48V518.832H-103.043V-274.875Z" fill="white"/>
</mask>
<g mask="url(#mask1_115_53068)">
<path d="M22.5812 62.3682C23.1425 66.4375 20.8812 69.6829 18.0572 72.2215C13.1105 76.6695 12.3705 78.2695 11.8838 79.4015C10.6265 82.3309 10.6758 85.9109 12.2612 88.8375C14.7638 93.4575 21.3212 96.7749 27.2105 96.6735C31.9438 96.5922 34.4052 93.9375 35.1985 93.0122C36.4692 91.5309 39.2718 86.3202 39.4132 86.0495C42.9612 79.2802 47.8252 78.0295 52.4492 78.7229C60.1932 79.8842 67.5772 83.6975 75.5025 79.8829C86.5078 74.5869 92.9665 58.8069 88.5185 48.7069C84.4705 39.5162 72.3452 34.3829 60.2625 39.5815C56.2358 41.3149 52.8692 44.2362 46.3385 47.8882C43.5678 49.4375 39.1252 50.6162 35.3678 50.1175C33.3118 49.8455 30.5972 49.3722 27.0518 45.9149C25.9358 44.8269 24.4292 42.6709 22.4238 41.6682C19.3385 40.1242 16.2518 41.6829 15.2345 44.4309C14.4665 46.5095 15.0825 49.3455 16.3558 51.4842C17.9038 54.0869 21.8198 56.8402 22.5812 62.3682Z" fill="#66CBBA"/>
</g>
<mask id="mask2_115_53068" style="mask-type:luminance" maskUnits="userSpaceOnUse" x="-104" y="-275" width="1124" height="794">
<path d="M-103.043 -274.875H1019.48V518.832H-103.043V-274.875Z" fill="white"/>
</mask>
<g mask="url(#mask2_115_53068)">
<path d="M51.1461 6.33516C51.1207 4.00182 47.4914 3.99516 47.5167 6.33516C47.5834 12.3178 47.6487 18.3005 47.7141 24.2832C47.7394 26.6165 51.3687 26.6218 51.3434 24.2832C51.2767 18.3005 51.2114 12.3178 51.1461 6.33516Z" fill="#66CBBA"/>
</g>
<mask id="mask3_115_53068" style="mask-type:luminance" maskUnits="userSpaceOnUse" x="-104" y="-275" width="1124" height="794">
<path d="M-103.041 -274.875H1019.48V518.832H-103.041V-274.875Z" fill="white"/>
</mask>
<g mask="url(#mask3_115_53068)">
<path d="M55.7007 39.6752V64.5632C55.7007 67.1898 59.7834 67.1952 59.7834 64.5632V39.6752C59.7834 37.0485 55.7007 37.0445 55.7007 39.6752Z" fill="white"/>
</g>
<mask id="mask4_115_53068" style="mask-type:luminance" maskUnits="userSpaceOnUse" x="-104" y="-275" width="1124" height="794">
<path d="M-103.043 -274.875H1019.48V518.832H-103.043V-274.875Z" fill="white"/>
</mask>
<g mask="url(#mask4_115_53068)">
<path d="M63.2824 51.882C63.0944 56.5513 62.8904 61.2206 62.6731 65.89C62.6117 67.2033 62.5491 68.518 62.4864 69.8313C62.4544 70.474 62.4237 71.118 62.3917 71.7606C62.3771 72.0686 62.3691 72.3806 62.3571 72.6926C61.7277 72.742 61.0944 72.77 60.4677 72.8113C59.4957 72.8766 58.5224 72.9366 57.5491 72.9926C55.6024 73.102 53.6557 73.19 51.7077 73.258C47.8384 73.3913 43.9677 73.442 40.0971 73.4073C38.9971 73.398 37.8971 73.382 36.7971 73.358C35.9237 73.3393 35.0331 73.3593 34.1611 73.274C33.9997 73.2433 33.8411 73.206 33.6851 73.1566C33.6824 73.1553 33.6784 73.154 33.6757 73.1526C33.6544 73.0726 33.6357 72.994 33.6197 72.9126C33.5797 72.4846 33.5664 72.0526 33.5411 71.6246C33.5077 71.0393 33.4757 70.4526 33.4437 69.866C33.3797 68.694 33.3211 67.522 33.2651 66.3486C33.1531 64.0046 33.0571 61.658 32.9757 59.3113C32.8144 54.6193 32.7131 49.9233 32.6731 45.2286C32.6544 43.154 32.6491 41.0806 32.6557 39.006H34.7157C34.7771 42.6113 34.8384 46.2153 34.8997 49.8193L35.1091 62.082C35.1184 62.6553 35.1277 63.23 35.1384 63.8033C35.1491 64.4566 35.1357 65.114 35.2757 65.7566C35.5024 66.7966 36.3144 67.5446 37.2957 67.87C37.6317 67.982 37.9797 68.0126 38.3171 68.11C38.3877 68.1486 38.4571 68.19 38.5251 68.234C38.6077 68.31 38.6864 68.3886 38.7624 68.4726C38.8211 68.5633 38.8771 68.658 38.9277 68.7553C38.9571 68.8446 38.9824 68.934 39.0037 69.026C39.0064 69.0953 39.0064 69.166 39.0051 69.2366C38.9757 70.3046 39.9437 71.25 41.0024 71.234C43.3451 71.1993 45.6864 71.1646 48.0277 71.13C49.1984 71.1126 50.3691 71.0953 51.5397 71.078C52.1384 71.07 52.7384 71.0606 53.3371 71.0526C54.0317 71.042 54.7517 71.078 55.4331 70.9193C56.4904 70.6753 57.1931 69.83 57.5251 68.8433C57.5944 68.6366 57.6317 68.422 57.6744 68.2086C57.7904 68.1806 57.9051 68.1526 58.0197 68.122C58.6117 67.958 59.1837 67.6846 59.6224 67.246C60.2424 66.6286 60.4651 65.8273 60.5157 64.978C60.5464 64.4646 60.5464 63.9473 60.5611 63.4326C60.6171 61.3926 60.6731 59.3513 60.7291 57.3113C60.8424 53.202 60.9557 49.0926 61.0691 44.9833C61.1237 42.9913 61.1784 40.9993 61.2331 39.006H63.7637C63.6157 43.2993 63.4557 47.59 63.2824 51.882ZM40.1611 39.006C40.1184 40.334 40.2824 41.666 40.7491 42.9206C41.4424 44.79 42.6331 46.5033 44.3917 47.5113C46.0504 48.462 47.9904 48.7193 49.8544 48.3646C51.6877 48.0153 53.3864 46.798 54.2437 45.1313C55.2277 43.2193 55.2504 41.094 55.0624 39.006H57.2371C57.1491 42.2286 57.0597 45.4513 56.9717 48.6726C56.8744 52.21 56.7771 55.746 56.6797 59.282C56.6517 60.274 56.6251 61.2673 56.5971 62.2593C56.5837 62.762 56.5691 63.266 56.5557 63.7686C56.5504 63.9686 56.5491 64.1686 56.5464 64.37C56.4784 64.3873 56.4104 64.4046 56.3437 64.4233C55.7424 64.594 55.1517 64.8793 54.7131 65.3353C54.2797 65.786 53.9944 66.3646 53.8557 66.9713C53.8491 66.998 53.8437 67.0246 53.8384 67.0526C53.7411 67.0513 53.6437 67.0513 53.5464 67.0526C53.0864 67.0593 52.6264 67.066 52.1664 67.074L49.4491 67.114C47.6517 67.1406 45.8531 67.166 44.0557 67.1926C43.5717 67.2006 43.0891 67.2073 42.6051 67.214C42.3464 66.6046 41.9731 66.042 41.5157 65.566C41.1171 65.15 40.6251 64.782 40.0984 64.5433C39.7891 64.4033 39.4704 64.262 39.1384 64.1833C39.1371 64.0846 39.1371 63.986 39.1357 63.8873C39.1277 63.4393 39.1197 62.9913 39.1131 62.5433C39.0971 61.634 39.0811 60.7233 39.0664 59.814L38.9731 54.3966C38.9117 50.7993 38.8504 47.202 38.7891 43.6046C38.7637 42.0713 38.7371 40.5393 38.7117 39.006H40.1611ZM51.1237 41.9286C51.0611 42.298 50.9704 42.6593 50.8437 43.0113C50.7424 43.2166 50.6291 43.4153 50.5011 43.6046C50.3837 43.7366 50.2597 43.8606 50.1277 43.9766C49.9517 44.0966 49.7677 44.202 49.5771 44.2966C49.3104 44.3913 49.0371 44.4646 48.7597 44.5166C48.4224 44.5446 48.0851 44.5433 47.7477 44.514C47.4131 44.4526 47.0851 44.3633 46.7651 44.246C46.5077 44.122 46.2611 43.9793 46.0251 43.8166C45.7584 43.5886 45.5117 43.338 45.2864 43.0686C45.0344 42.7113 44.8171 42.3326 44.6331 41.9366C44.4291 41.4006 44.2824 40.846 44.1877 40.2793C44.1437 39.8566 44.1291 39.4313 44.1411 39.006H51.0677C51.1611 39.978 51.2197 40.9566 51.1237 41.9286ZM74.7717 37.0086C74.7237 35.926 73.8944 35.01 72.7744 35.01H23.5611C23.0477 35.01 22.5104 35.234 22.1477 35.5953C21.8011 35.942 21.5397 36.5113 21.5624 37.0086C21.6104 38.0913 22.4411 39.006 23.5611 39.006H28.6597C28.6504 42.0033 28.6664 44.9993 28.7077 47.9953C28.7557 51.558 28.8397 55.122 28.9584 58.6833C29.0784 62.2446 29.2317 65.806 29.4211 69.3646C29.4677 70.2566 29.5171 71.15 29.5691 72.0433C29.6317 73.118 29.6784 74.2033 30.2117 75.1686C30.7384 76.126 31.7131 76.7646 32.7491 77.05C33.5584 77.2713 34.4171 77.2953 35.2517 77.318C38.8011 77.4126 42.3531 77.438 45.9024 77.3913C49.4531 77.346 53.0024 77.23 56.5477 77.0433C58.3277 76.9486 60.1064 76.838 61.8837 76.7086C62.3037 76.678 62.7264 76.6566 63.1451 76.6113C63.7651 76.546 64.3997 76.4606 64.9304 76.0993C65.5797 75.658 66.0877 75.0033 66.2104 74.2113C66.2984 73.646 66.3224 73.0846 66.3504 72.5153C66.5277 68.9513 66.6957 65.3873 66.8557 61.822C67.0144 58.258 67.1664 54.6926 67.3091 51.1273C67.4517 47.5473 67.5864 43.9673 67.7117 40.3873C67.7291 39.9273 67.7437 39.4673 67.7597 39.006H72.7744C73.2864 39.006 73.8251 38.7833 74.1864 38.4206C74.5331 38.0753 74.7944 37.506 74.7717 37.0086Z" fill="#99147E"/>
</g>
<mask id="mask5_115_53068" style="mask-type:luminance" maskUnits="userSpaceOnUse" x="-104" y="-275" width="1124" height="794">
<path d="M-103.041 -274.875H1019.48V518.832H-103.041V-274.875Z" fill="white"/>
</mask>
<g mask="url(#mask5_115_53068)">
<path d="M59.462 18.1843C59.0047 17.7643 58.4047 17.4536 57.766 17.4816C57.1514 17.5096 56.494 17.7096 56.0714 18.1843C55.1434 19.2243 54.2154 20.2643 53.2874 21.3043C52.4967 22.1909 51.7127 23.0843 50.8634 23.9149C50.4687 24.3003 50.0594 24.6709 49.6314 25.0189C49.482 25.1269 49.3314 25.2323 49.178 25.3336V6.39759C49.178 5.78293 48.91 5.13626 48.4754 4.70159C48.0594 4.28559 47.378 3.97359 46.7807 4.00026C46.1607 4.02693 45.5167 4.23093 45.0847 4.70159C44.654 5.17093 44.382 5.74826 44.382 6.39759V24.9029C44.3634 24.8816 44.3447 24.8589 44.326 24.8363C43.838 24.2616 43.35 23.6856 42.8634 23.1109C41.8874 21.9603 40.9114 20.8109 39.9367 19.6603C39.3767 19.0003 38.8167 18.3403 38.2567 17.6789C37.878 17.2336 37.1247 16.9776 36.5607 16.9776C35.9727 16.9776 35.27 17.2389 34.866 17.6789C34.446 18.1363 34.1354 18.7363 34.1634 19.3749C34.1927 19.5869 34.2207 19.8003 34.2487 20.0123C34.3634 20.4189 34.5687 20.7709 34.866 21.0696C36.2474 22.7003 37.63 24.3296 39.0114 25.9589C39.698 26.7683 40.3847 27.5776 41.0714 28.3869C41.3807 28.7509 41.682 29.1269 42.034 29.4509C42.3234 29.7176 42.638 29.9616 42.9634 30.1816C43.3087 30.4149 43.7007 30.5656 44.0834 30.7203C44.674 30.9603 45.298 31.0443 45.93 31.1069C46.362 31.1483 46.794 31.1283 47.222 31.0723C47.822 30.9963 48.4074 30.9149 48.982 30.7283C49.542 30.5469 50.0914 30.3123 50.6167 30.0483C51.5194 29.5963 52.3327 28.9776 53.11 28.3389C53.7674 27.7976 54.3767 27.2016 54.9634 26.5856C56.5087 24.9603 57.9687 23.2483 59.462 21.5749C59.886 21.0989 60.1647 20.5309 60.1647 19.8803C60.1647 19.2909 59.9034 18.5896 59.462 18.1843Z" fill="#99147E"/>
</g>
</g>
<defs>
<clipPath id="clip0_115_53068">
<rect width="78.9379" height="92.6771" fill="white" transform="translate(11 4)"/>
</clipPath>
</defs>
</svg>
