<svg width="100" height="100" viewBox="0 0 100 100" fill="none" xmlns="http://www.w3.org/2000/svg">
<rect width="100" height="100" fill="white"/>
<g clip-path="url(#clip0_115_56617)">
<mask id="mask0_115_56617" style="mask-type:luminance" maskUnits="userSpaceOnUse" x="-325" y="-271" width="1123" height="794">
<path d="M-324.523 -270.8H797.997V522.906H-324.523V-270.8Z" fill="white"/>
</mask>
<g mask="url(#mask0_115_56617)">
<path d="M81.2201 76.8491C71.7481 88.1624 49.2508 92.1997 36.6241 84.5651C23.9974 76.9304 22.2894 60.4837 29.0854 48.8544C29.7641 47.6917 31.5308 44.4744 32.4828 42.1091C33.4001 39.8344 33.5028 37.4184 32.0468 35.6384C30.9268 34.2691 28.7548 32.9344 24.3214 32.4371C21.7628 32.1491 20.0148 31.3984 19.0201 30.7597C14.2614 27.7011 12.1841 19.3651 15.9201 14.0117C19.4654 8.93306 26.0774 9.42506 30.3281 11.4011C34.9894 13.5704 36.1588 18.2184 36.9534 20.9491C38.4708 26.1691 39.7241 27.8864 40.6774 29.0797C43.5761 32.7077 51.7108 33.9837 55.8908 34.9824C65.0841 37.1811 71.4841 39.0397 75.8588 41.9717C88.9894 50.7691 89.8401 66.5531 81.2201 76.8491Z" fill="#66CBBA"/>
</g>
<mask id="mask1_115_56617" style="mask-type:luminance" maskUnits="userSpaceOnUse" x="-325" y="-271" width="1123" height="794">
<path d="M-324.523 -270.8H797.997V522.906H-324.523V-270.8Z" fill="white"/>
</mask>
<g mask="url(#mask1_115_56617)">
<path d="M52.5463 55.2512C50.337 54.9992 47.9036 55.1085 45.817 55.9419C43.9596 56.6832 42.989 58.1872 42.7703 60.1405C42.5676 61.9552 42.797 63.9179 44.2076 65.2152C45.8156 66.6939 48.033 66.8459 50.1063 66.7112C51.721 66.6045 51.733 64.0779 50.1063 64.1845C48.7823 64.2712 47.2503 64.3739 46.129 63.5285C45.1103 62.7605 45.117 61.3032 45.3023 60.1445C45.769 57.2299 50.3636 57.5285 52.5463 57.7779C54.1596 57.9619 54.1463 55.4339 52.5463 55.2512Z" fill="white"/>
</g>
<mask id="mask2_115_56617" style="mask-type:luminance" maskUnits="userSpaceOnUse" x="-325" y="-271" width="1123" height="794">
<path d="M-324.523 -270.8H797.997V522.906H-324.523V-270.8Z" fill="white"/>
</mask>
<g mask="url(#mask2_115_56617)">
<path d="M44.0599 39.1136C41.0532 43.8843 39.3719 49.6483 35.0559 53.4883C33.8399 54.571 35.6319 56.3536 36.8426 55.275C41.3412 51.271 43.1106 45.3563 46.2412 40.3883C47.1106 39.0096 44.9252 37.7403 44.0599 39.1136Z" fill="white"/>
</g>
<mask id="mask3_115_56617" style="mask-type:luminance" maskUnits="userSpaceOnUse" x="-325" y="-271" width="1123" height="794">
<path d="M-324.523 -270.8H797.997V522.906H-324.523V-270.8Z" fill="white"/>
</mask>
<g mask="url(#mask3_115_56617)">
<path d="M36.4329 38.6859C35.5889 41.9259 34.2395 44.9486 32.4009 47.7472C31.5049 49.1099 33.6915 50.3766 34.5822 49.0219C36.5315 46.0552 37.9742 42.7939 38.8689 39.3579C39.2795 37.7832 36.8435 37.1112 36.4329 38.6859Z" fill="white"/>
</g>
<mask id="mask4_115_56617" style="mask-type:luminance" maskUnits="userSpaceOnUse" x="-325" y="-271" width="1123" height="794">
<path d="M-324.523 -270.8H797.997V522.906H-324.523V-270.8Z" fill="white"/>
</mask>
<g mask="url(#mask4_115_56617)">
<path d="M33.4097 25.9219C33.4097 25.9219 33.4137 25.8872 33.419 25.7912C33.419 25.7939 33.4177 25.7965 33.4177 25.7965C33.415 25.8379 33.4123 25.8805 33.4097 25.9219Z" fill="#99147E"/>
</g>
<mask id="mask5_115_56617" style="mask-type:luminance" maskUnits="userSpaceOnUse" x="-325" y="-271" width="1123" height="794">
<path d="M-324.521 -270.8H797.999V522.906H-324.521V-270.8Z" fill="white"/>
</mask>
<g mask="url(#mask5_115_56617)">
<path d="M59.7357 69.2719C59.0984 70.1079 58.477 70.9572 57.8344 71.7892C57.825 71.8012 57.809 71.8199 57.7864 71.8505C57.6957 71.9652 57.6037 72.0785 57.5104 72.1919C57.3624 72.3705 57.2104 72.5479 57.053 72.7199C56.8757 72.9132 56.693 73.0999 56.5024 73.2785C56.4397 73.3385 56.3757 73.3972 56.3104 73.4545C56.313 73.4519 55.909 73.7785 56.1104 73.6279C55.8957 73.7892 55.7064 73.9905 55.561 74.2159H33.8384L33.8224 72.3879L33.737 63.3279C33.845 63.2279 33.9464 63.1159 34.0384 62.9905C34.7437 62.0292 35.2797 61.3279 35.9437 60.4919C36.6477 59.6039 37.3664 58.7265 38.093 57.8572C39.5504 56.1172 41.0437 54.4079 42.5397 52.7012C45.5437 49.2759 48.5464 45.8505 51.3117 42.2252C52.437 40.7492 53.5157 39.2372 54.5304 37.6839C55.1997 38.3559 55.9357 38.9625 56.7024 39.5545C58.1797 40.6959 59.669 41.8212 61.1557 42.9505C64.113 45.1959 67.077 47.4332 70.049 49.6599C71.2757 50.5785 72.505 51.4945 73.733 52.4119C68.8344 57.8345 64.169 63.4625 59.7357 69.2719ZM62.5157 77.6052C62.5317 78.5799 62.5477 79.5545 62.5637 80.5292C62.585 81.8119 62.6077 83.0959 62.6277 84.3785C62.6304 84.5772 62.637 84.7772 62.6304 84.9772C62.629 84.9599 62.6237 85.0092 62.621 85.0599C62.6117 85.0652 62.6104 85.0679 62.6197 85.0679C62.6197 85.0692 62.6197 85.0705 62.6197 85.0719C62.549 85.0932 62.4784 85.1119 62.4064 85.1279C62.365 85.1372 62.3237 85.1439 62.2824 85.1505C59.829 85.2452 57.377 85.4359 54.9237 85.5412C52.413 85.6479 49.9024 85.7305 47.3904 85.7892C44.8784 85.8465 42.365 85.8799 39.853 85.8892C38.597 85.8932 37.3397 85.8919 36.0837 85.8839C35.785 85.8825 35.485 85.8812 35.185 85.8772C35.0464 85.8759 34.9064 85.8639 34.7677 85.8665C34.7397 85.8665 34.6437 85.8572 34.6064 85.8545C34.537 85.8399 34.4677 85.8239 34.397 85.8065C34.381 85.8012 34.3637 85.7959 34.3477 85.7905C34.3464 85.7892 34.3424 85.7865 34.337 85.7839C34.3397 85.7852 34.341 85.7879 34.3424 85.7892C34.3344 85.7865 34.3264 85.7839 34.317 85.7812C34.3104 85.7745 34.3024 85.7665 34.2944 85.7585C34.293 85.7572 34.2917 85.7572 34.2904 85.7559C34.2877 85.7532 34.2877 85.7519 34.2864 85.7505C34.2824 85.7452 34.2784 85.7425 34.2744 85.7385C34.261 85.7252 34.249 85.7132 34.2384 85.7052C34.2344 85.6959 34.2317 85.6865 34.2264 85.6759C34.201 85.6199 34.1664 85.5572 34.1344 85.4999C34.1317 85.4932 34.1304 85.4865 34.129 85.4799C34.0797 85.2799 34.0317 85.0772 33.9824 84.8785C33.9797 84.8719 33.9784 84.8665 33.977 84.8612C33.977 84.8545 33.977 84.8479 33.9757 84.8399C33.969 84.7465 33.9597 84.6532 33.953 84.5585C33.9384 84.3279 33.933 84.0959 33.929 83.8639C33.9104 82.5665 33.905 81.2679 33.893 79.9705C33.885 79.1825 33.8784 78.3932 33.8704 77.6052H62.5157ZM33.685 57.8065C37.489 53.0359 40.741 47.8545 43.2877 42.3065C43.781 41.2332 44.2477 40.1465 44.693 39.0519C45.9064 39.5625 47.1197 40.0719 48.333 40.5812C48.2784 40.6532 48.2224 40.7265 48.1677 40.7972C48.2144 40.7372 48.317 40.6065 48.105 40.8785C47.7397 41.3465 47.3704 41.8132 46.9984 42.2772C46.2877 43.1585 45.5664 44.0292 44.8357 44.8932C41.945 48.3132 38.9264 51.6239 36.0424 55.0492C35.2437 55.9959 34.4584 56.9532 33.6864 57.9212L33.685 57.8065ZM33.6024 48.9505C35.3317 45.9185 36.6384 42.6399 37.449 39.2439C38.4957 39.5305 39.541 39.8159 40.5864 40.1025C40.4077 40.4985 40.2184 40.9065 40.0144 41.3385C39.1984 43.0652 38.3144 44.7612 37.365 46.4199C36.4304 48.0519 35.4344 49.6492 34.377 51.2039C34.1304 51.5679 33.8824 51.9265 33.633 52.2785L33.6024 48.9505ZM77.357 51.0612C77.3424 51.0479 77.3264 51.0359 77.3117 51.0239C77.1757 50.8265 77.001 50.6465 76.7904 50.4892C71.0224 46.1972 65.2797 41.8705 59.5637 37.5079C59.353 37.3479 59.141 37.1865 58.9304 37.0252C58.8704 36.9799 58.8104 36.9332 58.7504 36.8879C58.721 36.8652 58.6757 36.8292 58.6517 36.8119C58.309 36.5412 57.969 36.2679 57.6397 35.9812C57.313 35.6945 56.9957 35.3972 56.6984 35.0812C56.317 34.6745 56.2837 34.6345 55.9984 34.2052C55.625 33.6425 54.9397 33.2865 54.281 33.3759C53.6677 33.3412 53.0677 33.6239 52.7224 34.1945C51.977 35.4252 51.1877 36.6279 50.365 37.8065C50.2784 37.7585 50.1877 37.7132 50.093 37.6732C48.1304 36.8492 46.1677 36.0252 44.2064 35.2012C43.3064 34.8225 42.4104 35.6212 42.121 36.3839C42.0477 36.5772 41.9757 36.7639 41.905 36.9465C40.1437 36.4652 38.3824 35.9839 36.621 35.5025C35.7917 35.2759 34.7064 35.7825 34.5357 36.6865C34.2704 38.0919 33.9344 39.4372 33.525 40.7399C33.481 36.1239 33.4344 31.5079 33.3944 26.8905C33.393 26.6185 33.3877 26.3465 33.3997 26.0745C33.4024 26.0239 33.4064 25.9732 33.4104 25.9225C33.4077 25.9225 33.4104 25.8505 33.4184 25.7972C33.4197 25.7865 33.4197 25.7759 33.421 25.7665C33.4197 25.7759 33.4197 25.7839 33.4197 25.7919C33.421 25.7812 33.4224 25.7719 33.425 25.7639C33.453 25.6559 33.485 25.5465 33.513 25.4372C33.517 25.4305 33.5224 25.4212 33.529 25.4105C33.533 25.4052 33.5357 25.3985 33.5397 25.3932C33.5397 25.3919 33.541 25.3905 33.5424 25.3905C33.6037 25.3559 33.6157 25.3439 33.577 25.3559C33.6904 25.3172 33.809 25.2892 33.9277 25.2679C33.8584 25.2825 34.0837 25.2545 34.1517 25.2505C34.281 25.2425 34.4117 25.2399 34.5424 25.2372C35.137 25.2239 35.733 25.2239 36.3277 25.2172C38.877 25.1892 41.4264 25.1625 43.9757 25.1345C48.9784 25.0812 53.9904 24.9385 58.993 24.9852C59.5784 24.9905 60.1637 25.0079 60.7477 25.0505C60.9904 25.0692 61.2344 25.0892 61.477 25.1185C61.5157 25.1239 61.5877 25.1359 61.617 25.1425C61.7664 25.1759 61.9144 25.2025 62.061 25.2452C62.1104 25.2585 62.1597 25.2732 62.209 25.2892C62.197 25.2932 62.3064 25.3492 62.3717 25.3812C62.3744 25.3839 62.377 25.3865 62.3797 25.3892C62.393 25.4119 62.413 25.4452 62.4424 25.4905C62.4397 25.4732 62.4384 25.4572 62.437 25.4452C62.441 25.4479 62.4437 25.4505 62.4464 25.4532C62.4704 25.5945 62.513 25.9065 62.4917 25.7599C62.4557 25.5119 62.5104 26.0252 62.509 26.0079C62.5224 26.1959 62.5317 26.3852 62.541 26.5732C62.6744 29.0892 62.6917 31.6105 62.593 34.1279C62.5464 35.3519 62.469 36.5759 62.369 37.7972C62.2957 38.6825 63.1997 39.5305 64.0637 39.4919C65.0437 39.4479 65.6797 38.7452 65.7584 37.7972C65.9824 35.0825 66.0784 32.3585 66.0357 29.6345C66.0157 28.3505 66.001 27.0505 65.8797 25.7705C65.7477 24.3599 65.245 23.0599 63.9237 22.3599C62.7597 21.7439 61.3557 21.6772 60.0664 21.6212C58.7824 21.5665 57.4957 21.5999 56.2117 21.6132C53.5264 21.6425 50.841 21.6719 48.157 21.6999L40.2024 21.7852C38.8437 21.7999 37.4837 21.8145 36.1237 21.8292C34.917 21.8425 33.5677 21.7225 32.4277 22.1852C31.025 22.7559 30.2744 23.9172 30.077 25.3879C29.9117 26.6239 30.0144 27.9025 30.0264 29.1452C30.0517 31.8439 30.077 34.5425 30.1024 37.2399L30.405 69.5185C30.4304 72.2505 30.4557 74.9839 30.4824 77.7159C30.4944 79.0132 30.5064 80.3119 30.5184 81.6092C30.529 82.7759 30.4744 83.9625 30.6197 85.1212C30.7664 86.2959 31.1144 87.5239 32.0717 88.3065C33.217 89.2452 34.569 89.2639 35.9824 89.2732C38.6637 89.2905 41.3464 89.2799 44.029 89.2412C49.393 89.1639 54.7557 88.9759 60.1117 88.6745C61.2757 88.6092 62.5984 88.6745 63.7104 88.2812C65.2237 87.7479 65.981 86.4999 66.0224 84.9239C66.0917 82.2852 65.9397 79.6225 65.8957 76.9839C65.8744 75.6679 65.8517 74.3505 65.8304 73.0332C65.8157 72.1479 65.061 71.2972 64.1357 71.3385C63.229 71.3799 62.425 72.0839 62.4397 73.0332C62.4464 73.4279 62.453 73.8212 62.4597 74.2159H60.189C60.7344 73.5505 61.2477 72.8519 61.7744 72.1532C62.977 70.5599 64.0437 69.1812 65.2837 67.6145C67.737 64.5185 70.2624 61.4785 72.8557 58.4985C74.3344 56.7999 75.8357 55.1199 77.357 53.4585C77.957 52.8052 78.0517 51.6999 77.357 51.0612Z" fill="#99147E"/>
</g>
<mask id="mask6_115_56617" style="mask-type:luminance" maskUnits="userSpaceOnUse" x="-325" y="-271" width="1123" height="794">
<path d="M-324.523 -270.8H797.997V522.906H-324.523V-270.8Z" fill="white"/>
</mask>
<g mask="url(#mask6_115_56617)">
<path d="M34.3374 85.7812C34.2881 85.7253 34.2174 85.6546 34.2854 85.7479C34.2894 85.7506 34.2907 85.7533 34.2947 85.7559C34.3134 85.7666 34.3281 85.7759 34.3374 85.7812Z" fill="#99147E"/>
</g>
<mask id="mask7_115_56617" style="mask-type:luminance" maskUnits="userSpaceOnUse" x="-325" y="-271" width="1123" height="794">
<path d="M-324.523 -270.8H797.997V522.906H-324.523V-270.8Z" fill="white"/>
</mask>
<g mask="url(#mask7_115_56617)">
<path d="M54.9583 62.5592C54.9463 62.7498 54.9303 62.9405 54.9117 63.1312C54.9143 63.0965 54.9437 62.9245 54.9143 63.1125C54.8943 63.2472 54.8703 63.3805 54.841 63.5138C54.801 63.6978 54.7517 63.8805 54.693 64.0605C54.677 64.1085 54.661 64.1565 54.6437 64.2045C54.6317 64.2272 54.585 64.3298 54.5743 64.3485C54.4957 64.4845 54.409 64.6165 54.329 64.7512C54.2757 64.8125 54.2223 64.8738 54.165 64.9325C54.0837 65.0165 53.997 65.0952 53.909 65.1725C54.0077 65.0832 53.7957 65.2592 53.705 65.3178C53.5783 65.3978 53.4503 65.4712 53.3183 65.5405C53.2463 65.5778 53.173 65.6125 53.0997 65.6472C52.8077 65.7392 52.5237 65.8445 52.2263 65.9178C52.073 65.9552 51.9197 65.9872 51.7663 66.0152C51.6823 66.0312 51.5997 66.0432 51.5157 66.0578C50.8583 66.1085 50.2103 66.1432 49.5503 66.1125C48.6263 66.0685 48.349 66.0498 47.4557 65.8272C47.1223 65.7445 46.7957 65.6432 46.4743 65.5218C46.493 65.5258 46.2637 65.4312 46.213 65.4058C46.0023 65.3018 45.7983 65.1872 45.5997 65.0605C45.5397 65.0218 45.2397 64.7978 45.3143 64.8645C45.2197 64.7845 45.1263 64.7032 45.037 64.6165C44.9303 64.5138 44.8277 64.4058 44.7303 64.2952C44.6903 64.2498 44.653 64.1965 44.6103 64.1538C44.605 64.1432 44.5983 64.1325 44.5903 64.1192C44.433 63.8685 44.273 63.6245 44.1423 63.3578C44.1183 63.3098 44.097 63.2592 44.073 63.2112C44.033 63.0498 43.9583 62.8938 43.9103 62.7338C43.8277 62.4538 43.789 62.1658 43.7183 61.8845C43.7117 61.8258 43.705 61.7672 43.701 61.7085C43.6877 61.5365 43.681 61.3645 43.6797 61.1925C43.6783 60.9352 43.6943 60.6792 43.7183 60.4232C43.7183 60.4525 43.7477 60.2338 43.7677 60.1378C43.8023 59.9685 43.8423 59.8005 43.889 59.6352C43.9303 59.4898 43.9757 59.3458 44.0263 59.2032C44.0463 59.1445 44.069 59.0872 44.0917 59.0285C44.2357 58.7458 44.373 58.4658 44.5477 58.1992C44.597 58.1232 44.6503 58.0512 44.6997 57.9765C44.7117 57.9592 44.721 57.9458 44.729 57.9338C44.7343 57.9285 44.7397 57.9218 44.749 57.9125C44.8743 57.7765 44.989 57.6325 45.1183 57.4992C45.2463 57.3658 45.3797 57.2378 45.517 57.1152C45.569 57.0685 45.621 57.0245 45.673 56.9792C45.6983 56.9578 45.717 56.9405 45.733 56.9258C46.0343 56.7112 46.3397 56.5072 46.665 56.3285C46.8477 56.2285 47.0357 56.1365 47.225 56.0472C47.229 56.0445 47.2463 56.0378 47.2663 56.0285C47.3303 56.0045 47.4943 55.9418 47.4903 55.9432C47.8423 55.8138 48.2023 55.7072 48.5663 55.6232C48.7503 55.5805 48.9343 55.5485 49.1183 55.5125C49.1423 55.5072 49.1917 55.5005 49.2277 55.4952C49.2837 55.4898 49.3383 55.4832 49.393 55.4778C49.7917 55.4405 50.1903 55.4285 50.5903 55.4432C50.7197 55.4472 50.8477 55.4552 50.977 55.4658C51.1823 55.5658 51.413 55.6258 51.6637 55.6312C51.7463 55.6338 51.8317 55.6418 51.9143 55.6418C52.053 55.6725 52.1903 55.7005 52.3263 55.7418C52.3943 55.7632 52.461 55.7872 52.5277 55.8112C52.6863 55.9018 52.8503 55.9778 53.005 56.0765C53.0903 56.1298 53.397 56.3845 53.1903 56.1978C53.3117 56.3085 53.437 56.4138 53.5543 56.5298C53.6703 56.6472 53.781 56.7698 53.8877 56.8952C54.0877 57.1285 53.9343 56.9605 53.8983 56.9085C53.9517 56.9858 54.0063 57.0632 54.0583 57.1418C54.4957 57.8205 54.653 58.2978 54.8277 59.1498C54.9237 59.6125 54.9197 59.5978 54.957 60.0845C54.989 60.5138 54.9997 60.9458 54.997 61.3778C54.9943 61.7712 54.9823 62.1658 54.9583 62.5592ZM56.921 55.7138C55.9783 54.1285 54.4423 52.9165 52.649 52.5552C52.553 52.5098 52.4503 52.4765 52.3397 52.4565C48.8797 51.8472 45.0077 52.7818 42.6303 55.5005C40.3357 58.1245 39.8343 61.9698 41.4477 65.0792C43.2117 68.4792 47.3557 69.5005 50.9117 69.2952C52.573 69.1992 54.3183 68.8312 55.6743 67.8138C57.421 66.5045 58.029 64.5925 58.1503 62.4778C58.2797 60.1965 58.1143 57.7232 56.921 55.7138Z" fill="#99147E"/>
</g>
</g>
<defs>
<clipPath id="clip0_115_56617">
<rect width="72.8643" height="79.2788" fill="white" transform="translate(14 10)"/>
</clipPath>
</defs>
</svg>
