<svg width="100" height="100" viewBox="0 0 100 100" fill="none" xmlns="http://www.w3.org/2000/svg">
<rect width="100" height="100" fill="white"/>
<g clip-path="url(#clip0_115_60167)">
<mask id="mask0_115_60167" style="mask-type:luminance" maskUnits="userSpaceOnUse" x="-323" y="-376" width="1123" height="794">
<path d="M-322.707 -375.902H799.813V417.805H-322.707V-375.902Z" fill="white"/>
</mask>
<g mask="url(#mask0_115_60167)">
<path d="M81.3447 47.7354C90.8914 67.4941 80.69 79.2034 59.374 82.0741C50.4567 83.2741 37.2594 82.2821 30.9247 79.7914C15.5581 73.4781 11.3767 57.3968 18.0994 44.9874C24.1034 33.9061 39.83 25.9474 53.9567 26.1901C65.3114 26.3848 71.094 32.8634 73.118 34.9728C76.1447 38.1261 78.3967 41.8888 81.3447 47.7354Z" fill="#D8CA3C"/>
</g>
<mask id="mask1_115_60167" style="mask-type:luminance" maskUnits="userSpaceOnUse" x="-323" y="-376" width="1123" height="794">
<path d="M-322.707 -375.902H799.813V417.805H-322.707V-375.902Z" fill="white"/>
</mask>
<g mask="url(#mask1_115_60167)">
<path d="M70.4212 31.2095L69.3759 64.5895C69.3159 66.5281 72.3279 66.5268 72.3879 64.5895L73.4332 31.2095C73.4946 29.2708 70.4812 29.2721 70.4212 31.2095Z" fill="#A72B9B" stroke="white" stroke-width="1.33333" stroke-miterlimit="10"/>
</g>
<mask id="mask2_115_60167" style="mask-type:luminance" maskUnits="userSpaceOnUse" x="-323" y="-376" width="1123" height="794">
<path d="M-322.705 -375.902H799.815V417.805H-322.705V-375.902Z" fill="white"/>
</mask>
<g mask="url(#mask2_115_60167)">
<path d="M49.4214 61.7536H43.2441C41.3054 61.7536 41.3027 64.7656 43.2441 64.7656H49.4214C51.3601 64.7656 51.3627 61.7536 49.4214 61.7536Z" fill="#A72B9B" stroke="white" stroke-width="1.33333" stroke-miterlimit="10"/>
</g>
<mask id="mask3_115_60167" style="mask-type:luminance" maskUnits="userSpaceOnUse" x="-323" y="-376" width="1123" height="794">
<path d="M-322.707 -375.902H799.813V417.805H-322.707V-375.902Z" fill="white"/>
</mask>
<g mask="url(#mask3_115_60167)">
<path d="M35.8784 69.7707C35.025 58.0133 34.1717 46.2453 34.0317 34.452C33.9917 31.0773 34.013 27.7027 34.1037 24.328C34.1557 22.3893 31.1437 22.3907 31.0917 24.328C30.773 36.1173 31.3557 47.904 32.1504 59.664C32.377 63.0333 32.621 66.4027 32.8664 69.7707C32.925 70.5827 33.5157 71.2773 34.3717 71.2773C35.141 71.2773 35.937 70.5867 35.8784 69.7707Z" fill="#A72B9B"/>
</g>
<mask id="mask4_115_60167" style="mask-type:luminance" maskUnits="userSpaceOnUse" x="-323" y="-376" width="1123" height="794">
<path d="M-322.707 -375.902H799.813V417.805H-322.707V-375.902Z" fill="white"/>
</mask>
<g mask="url(#mask4_115_60167)">
<path d="M35.8784 69.7707C35.025 58.0133 34.1717 46.2453 34.0317 34.452C33.9917 31.0773 34.013 27.7027 34.1037 24.328C34.1557 22.3893 31.1437 22.3907 31.0917 24.328C30.773 36.1173 31.3557 47.904 32.1504 59.664C32.377 63.0333 32.621 66.4027 32.8664 69.7707C32.925 70.5827 33.5157 71.2773 34.3717 71.2773C35.141 71.2773 35.937 70.5867 35.8784 69.7707Z" stroke="white" stroke-width="1.33333" stroke-miterlimit="10"/>
</g>
<mask id="mask5_115_60167" style="mask-type:luminance" maskUnits="userSpaceOnUse" x="-323" y="-376" width="1123" height="794">
<path d="M-322.707 -375.902H799.813V417.805H-322.707V-375.902Z" fill="white"/>
</mask>
<g mask="url(#mask5_115_60167)">
<path d="M64.05 69.6374C64.05 68.8814 64.0486 68.1241 64.0486 67.3681C63.49 67.3627 62.93 67.3694 62.37 67.3828C61.9553 67.3934 61.5406 67.4081 61.126 67.4241C61.126 68.3814 61.126 69.3401 61.1273 70.2987C61.1273 70.4894 61.1273 70.6814 61.1273 70.8721C60.9993 70.8601 60.8713 70.8521 60.7406 70.8467C59.6766 70.8041 58.606 70.8161 57.5406 70.8027C56.3486 70.7881 55.1566 70.7734 53.9646 70.7587C52.486 70.5321 50.8366 70.6827 49.4846 70.6307C44.0913 70.4227 38.698 70.2147 33.3033 70.0067C33.338 69.4174 33.3713 68.8627 33.3593 68.4307C33.2673 65.1268 33.1806 61.8241 33.0993 58.5201C32.8086 46.7748 32.59 35.0267 32.4286 23.2788C41.754 23.3668 51.0713 23.7174 60.3766 24.3348C60.6953 24.3561 60.9646 24.2988 61.1926 24.1934C61.2353 24.9041 61.25 25.6254 61.2513 26.3468C62.4046 26.2588 63.5526 26.2361 64.7046 26.2348C64.6953 23.0414 65.2273 18.3388 61.3086 17.5228C59.29 17.1014 57.026 17.3508 54.974 17.3228L31.3553 17.0014C31.038 16.9961 30.7686 17.0681 30.5406 17.1841C29.6806 17.2041 28.842 17.7654 28.8566 18.8761C29.042 33.9094 29.33 48.9414 29.7273 63.9707C29.8166 67.3534 29.478 71.0747 30.078 74.4041C30.4953 76.7214 32.3526 77.6281 34.5353 77.7721C41.874 78.2561 49.4166 77.7627 56.774 77.7507C57.0166 77.7507 57.2486 77.6974 57.458 77.6054C58.114 77.6294 58.77 77.6534 59.426 77.6761C60.5473 77.7161 61.83 77.8681 62.814 77.2027C63.5833 76.6814 63.9246 75.9094 64.026 75.0107C64.09 74.4481 64.0526 73.8667 64.0513 73.3014C64.0513 72.0801 64.05 70.8587 64.05 69.6374Z" fill="#99147E"/>
</g>
<mask id="mask6_115_60167" style="mask-type:luminance" maskUnits="userSpaceOnUse" x="-323" y="-376" width="1123" height="794">
<path d="M-322.707 -375.902H799.813V417.805H-322.707V-375.902Z" fill="white"/>
</mask>
<g mask="url(#mask6_115_60167)">
<path d="M54.4054 20.3046C54.3881 19.9219 54.2628 19.5246 53.9721 19.2566C53.6681 18.9792 53.3348 18.8566 52.9241 18.8232C49.9881 18.5832 47.0361 18.5566 44.0961 18.7512C43.2588 18.8059 42.4228 18.8792 41.5881 18.9699C41.1828 19.0139 40.8374 19.1059 40.5401 19.4032C40.2828 19.6606 40.0894 20.0819 40.1054 20.4512C40.1228 20.8339 40.2494 21.2312 40.5401 21.4992C40.8121 21.7486 41.2041 21.9739 41.5881 21.9326C44.5161 21.6166 47.4668 21.5139 50.4094 21.6326C51.2494 21.6659 52.0868 21.7179 52.9241 21.7859C53.2841 21.8152 53.7241 21.5992 53.9721 21.3526C54.2281 21.0952 54.4214 20.6739 54.4054 20.3046Z" fill="#A72B9B" stroke="white" stroke-width="1.33333" stroke-miterlimit="10"/>
</g>
<mask id="mask7_115_60167" style="mask-type:luminance" maskUnits="userSpaceOnUse" x="-323" y="-376" width="1123" height="794">
<path d="M-322.707 -375.902H799.813V417.805H-322.707V-375.902Z" fill="white"/>
</mask>
<g mask="url(#mask7_115_60167)">
<path d="M50.5464 74.7921C50.5104 73.9894 49.8957 73.3108 49.065 73.3108H46.797C46.0224 73.3108 45.2797 73.9921 45.3157 74.7921C45.3517 75.5948 45.9664 76.2734 46.797 76.2734H49.065C49.8397 76.2734 50.5824 75.5921 50.5464 74.7921Z" fill="#A72B9B" stroke="white" stroke-width="1.33333" stroke-miterlimit="10"/>
</g>
<mask id="mask8_115_60167" style="mask-type:luminance" maskUnits="userSpaceOnUse" x="-323" y="-376" width="1123" height="794">
<path d="M-322.707 -375.902H799.813V417.805H-322.707V-375.902Z" fill="white"/>
</mask>
<g mask="url(#mask8_115_60167)">
<path d="M62.2922 64.2205C62.3109 64.1445 62.3229 64.0671 62.3229 63.9858L62.3176 41.4458C62.3162 39.6005 62.3856 37.7405 62.3136 35.8978C62.2962 35.4751 62.2336 35.0778 62.0082 34.7138C61.9922 34.6871 61.9749 34.6631 61.9576 34.6391C61.9629 34.6045 61.9669 34.5685 61.9696 34.5325C62.0589 32.8845 62.1482 31.2365 62.2389 29.5885C65.1602 29.8751 68.0829 30.1605 71.0042 30.4458C71.2056 30.4658 71.4069 30.4858 71.6069 30.5045C71.7056 30.5151 71.8042 30.5271 71.9029 30.5338C71.9189 31.3405 71.9349 32.1471 71.9469 32.9538C71.9722 34.5978 71.9896 36.2418 71.9976 37.8845C72.0349 44.4605 71.9416 51.0365 71.7202 57.6085C71.6589 59.4285 71.5869 61.2485 71.5069 63.0671C71.4869 63.5005 71.4709 63.9338 71.4469 64.3671C71.3816 64.3658 71.3176 64.3631 71.2522 64.3618C71.1722 64.3391 71.0896 64.3258 71.0042 64.3258L69.3429 64.3058C69.1389 64.2991 68.9349 64.2925 68.7309 64.2871C68.6776 64.2858 68.6242 64.2898 68.5722 64.2965C66.4789 64.2711 64.3856 64.2458 62.2922 64.2205ZM51.7242 64.0938C51.8149 63.9418 51.8709 63.7671 51.8762 63.5818C52.0109 59.4191 51.9122 55.2525 51.5816 51.1018C51.6456 50.9711 51.6829 50.8271 51.6856 50.6751C51.7562 47.1898 51.8869 43.7045 52.0816 40.2245C52.1309 39.3471 52.1842 38.4711 52.2402 37.5951C52.2669 37.1938 52.2936 36.7938 52.3216 36.3938C52.3349 36.2031 52.3482 36.0138 52.3616 35.8231C52.5576 35.8271 52.7536 35.8325 52.9482 35.8365C53.3962 35.8471 53.8442 35.8565 54.2922 35.8671C55.1629 35.8871 56.0336 35.9071 56.9056 35.9258C57.7509 35.9458 58.5962 35.9645 59.4429 35.9845C59.6669 35.9898 59.8909 35.9938 60.1149 35.9991C60.1389 36.0005 60.1616 36.0018 60.1856 36.0018C60.1856 36.1045 60.1869 36.2071 60.1869 36.3085L60.1882 41.5458L60.1909 52.0951C60.1922 56.0418 60.1922 59.9885 60.1936 63.9338C60.1936 64.0245 60.2056 64.1111 60.2269 64.1951L51.7242 64.0938ZM60.1976 35.8271C60.1962 35.8271 60.1949 35.8258 60.1936 35.8258C60.1949 35.7805 60.1936 35.7285 60.1896 35.8218C60.1429 35.7845 60.2176 35.6658 60.1976 35.8271ZM45.9682 64.0245L43.2389 63.9911C43.2509 60.0711 43.4202 56.1525 43.7509 52.2471C45.6642 52.0138 47.5896 51.8951 49.5162 51.8791C49.7962 55.7565 49.8736 59.6445 49.7482 63.5298C49.7416 63.7245 49.7936 63.9098 49.8869 64.0711C48.5802 64.0551 47.2749 64.0391 45.9682 64.0245ZM76.7642 64.6258C75.7042 64.6351 74.6442 64.6205 73.5856 64.5871C73.6629 63.9285 73.6309 63.2311 73.6589 62.5885C73.6962 61.7045 73.7336 60.8191 73.7669 59.9351C73.9016 56.4218 73.9989 52.9085 74.0589 49.3925C74.1202 45.8778 74.1442 42.3631 74.1309 38.8471C74.1242 37.0765 74.1082 35.3071 74.0829 33.5365C74.0709 32.6765 74.0562 31.8165 74.0402 30.9565C74.0216 30.0325 73.9122 29.0965 72.9802 28.6485C72.5669 28.4498 72.1109 28.4205 71.6589 28.3765C71.1562 28.3271 70.6549 28.2778 70.1522 28.2285L67.2136 27.9418C65.2296 27.7471 63.2469 27.5538 61.2629 27.3591C60.6776 27.3018 60.2016 27.8565 60.1722 28.3978C60.0736 30.2125 59.9736 32.0271 59.8749 33.8418C59.2269 33.8151 58.5696 33.8351 57.9269 33.8205C56.0856 33.7778 54.2442 33.7298 52.4029 33.6938C51.9616 33.6858 51.5176 33.7151 51.1229 33.9338C50.5882 34.2325 50.3456 34.7711 50.2709 35.3538C50.1549 36.2498 50.1349 37.1671 50.0789 38.0685C49.8322 41.9591 49.6669 45.8538 49.5776 49.7511C47.2122 49.7711 44.8522 49.9511 42.5082 50.2751C42.0296 50.3405 41.7416 50.8498 41.7016 51.2818C41.3189 55.4991 41.1216 59.7311 41.1109 63.9658L38.8362 63.9378C38.2616 63.9311 37.7602 64.3965 37.7469 64.9765C37.7322 65.5485 38.2082 66.0591 38.7856 66.0671C47.1309 66.1671 55.4762 66.2671 63.8216 66.3685L68.8976 66.4298C68.9242 66.4338 68.9522 66.4378 68.9789 66.4405C71.5509 66.6711 74.1309 66.7765 76.7122 66.7551C77.2869 66.7498 77.7882 66.3045 77.8029 65.7165C77.8162 65.1538 77.3416 64.6205 76.7642 64.6258Z" fill="#99147E"/>
</g>
</g>
<defs>
<clipPath id="clip0_115_60167">
<rect width="69.9398" height="65.5782" fill="white" transform="translate(15 17)"/>
</clipPath>
</defs>
</svg>
