<svg width="100" height="100" viewBox="0 0 100 100" fill="none" xmlns="http://www.w3.org/2000/svg">
<rect width="100" height="100" fill="white"/>
<g clip-path="url(#clip0_115_67267)">
<mask id="mask0_115_67267" style="mask-type:luminance" maskUnits="userSpaceOnUse" x="-578" y="-479" width="1124" height="794">
<path d="M-577.387 -478.707H545.133V315H-577.387V-478.707Z" fill="white"/>
</mask>
<g mask="url(#mask0_115_67267)">
<path d="M17.6749 43.0412C7.91227 63.2465 18.3443 75.2212 40.1416 78.1559C49.2603 79.3839 62.7576 78.3692 69.2349 75.8212C84.9496 69.3665 89.2256 52.9212 82.3496 40.2305C76.2109 28.8985 60.1283 20.7599 45.6829 21.0079C34.0709 21.2079 28.1576 27.8319 26.0883 29.9892C22.9923 33.2145 20.6896 37.0625 17.6749 43.0412Z" fill="#F47216"/>
</g>
<mask id="mask1_115_67267" style="mask-type:luminance" maskUnits="userSpaceOnUse" x="-578" y="-479" width="1124" height="794">
<path d="M-577.387 -478.707H545.133V315H-577.387V-478.707Z" fill="white"/>
</mask>
<g mask="url(#mask1_115_67267)">
<path d="M43.1127 50.9536C42.442 49.8456 41.3794 49.9442 40.298 50.3122C38.438 50.9442 36.5354 51.4509 34.6047 51.8082C34.246 51.8736 33.918 52.0349 33.678 52.2709C33.0034 52.5096 32.5074 53.1709 32.8674 54.0229C33.2594 54.9536 33.5687 56.3309 34.714 56.5602C35.2074 56.6589 35.6954 56.4882 36.174 56.3802C36.702 56.2602 37.2314 56.1416 37.7607 56.0216C38.726 55.8042 39.698 55.5989 40.6434 55.3056C41.5914 55.0109 42.7847 54.6549 43.2954 53.7282C43.7567 52.8922 43.5954 51.7522 43.1127 50.9536Z" fill="#99147E"/>
</g>
<mask id="mask2_115_67267" style="mask-type:luminance" maskUnits="userSpaceOnUse" x="-578" y="-479" width="1124" height="794">
<path d="M-577.387 -478.707H545.133V315H-577.387V-478.707Z" fill="white"/>
</mask>
<g mask="url(#mask2_115_67267)">
<path d="M40.2883 62.6987C40.1563 61.836 39.9976 60.9774 39.8203 60.1227C39.6616 59.3534 39.487 58.6014 38.9763 57.9787C38.3736 57.2427 37.027 56.7934 35.971 57.0054C35.8536 56.9827 35.731 56.9734 35.6016 56.9827C34.879 57.0347 34.1563 57.7467 34.2776 58.5147C34.375 59.1387 34.575 59.9134 34.2416 60.4987C33.9856 60.9494 33.455 61.2507 33.0243 61.5067C32.3297 61.92 31.603 62.28 30.891 62.66C30.1883 63.0334 29.3843 63.3534 28.7537 63.84C27.311 64.952 27.611 67.2747 28.9177 68.3947C30.2643 69.548 32.4336 68.9667 33.9736 68.628C35.6043 68.2694 37.3123 67.788 38.8403 67.1094C39.611 66.7667 40.291 66.2027 40.471 65.3347C40.6457 64.4827 40.4176 63.5454 40.2883 62.6987Z" fill="#99147E"/>
</g>
<mask id="mask3_115_67267" style="mask-type:luminance" maskUnits="userSpaceOnUse" x="-578" y="-479" width="1124" height="794">
<path d="M-577.385 -478.707H545.135V315H-577.385V-478.707Z" fill="white"/>
</mask>
<g mask="url(#mask3_115_67267)">
<path d="M51.6539 52.0386C51.4379 50.7293 51.2232 49.4213 51.0072 48.112C50.8099 46.9146 50.7859 45.344 49.5392 44.7213C48.9099 44.4066 48.2979 44.52 47.6432 44.6506L45.6299 45.0573C45.0046 45.1826 44.3206 45.2173 43.8366 45.6666C43.6579 45.656 43.4726 45.6786 43.2819 45.7466C42.6086 45.9853 42.0806 46.8733 42.4126 47.576C43.5566 49.9946 44.3366 52.5506 44.6806 55.2053C44.8112 56.2186 45.6526 56.6533 46.5886 56.452C47.8939 56.1706 49.2419 55.8466 50.4779 55.3333C51.1179 55.0693 51.6392 54.6373 51.8032 53.9386C51.9486 53.316 51.7552 52.652 51.6539 52.0386Z" fill="#99147E"/>
</g>
<mask id="mask4_115_67267" style="mask-type:luminance" maskUnits="userSpaceOnUse" x="-578" y="-479" width="1124" height="794">
<path d="M-577.385 -478.707H545.135V315H-577.385V-478.707Z" fill="white"/>
</mask>
<g mask="url(#mask4_115_67267)">
<path d="M48.5421 38.6393C47.5808 37.378 46.2635 37.2966 44.7995 37.458C43.2581 37.6273 41.7248 37.9286 40.2315 38.3406C39.5248 38.5353 38.8248 38.7593 38.1355 39.0113C37.4421 39.2646 36.6541 39.5113 36.0328 39.922C35.4088 40.334 34.9768 40.97 34.9741 41.734C34.9715 42.446 35.2875 43.1446 35.4035 43.8486C35.6541 45.366 35.8168 47.0313 36.8208 48.2753C37.6795 49.3393 38.9501 49.8646 40.2008 49.6073C40.2568 49.6126 40.3101 49.6206 40.3688 49.6233C40.7288 49.6406 41.1381 49.4006 41.3835 49.098C41.7835 48.7713 41.9328 48.2046 41.8275 47.702C41.8515 47.434 41.8488 47.1593 41.8181 46.8766C41.7861 46.5886 41.6181 46.01 41.7488 45.7926C41.9501 45.4566 42.9261 45.262 43.2555 45.1406C43.9288 44.89 44.6101 44.6606 45.2968 44.4513C46.6715 44.0326 48.1581 43.75 48.9661 42.4233C49.6901 41.2326 49.3568 39.7073 48.5421 38.6393Z" fill="#99147E"/>
</g>
<mask id="mask5_115_67267" style="mask-type:luminance" maskUnits="userSpaceOnUse" x="-578" y="-479" width="1124" height="794">
<path d="M-577.387 -478.707H545.133V315H-577.387V-478.707Z" fill="white"/>
</mask>
<g mask="url(#mask5_115_67267)">
<path d="M36.2493 49.0703C35.6587 47.3089 35.008 45.5676 34.2893 43.8543C33.8867 42.8956 33.4173 42.0743 32.2533 42.0569C31.4173 42.0449 30.588 42.3436 29.7987 42.5876C28 43.1409 26.2093 43.7223 24.4267 44.3276C23.644 44.5943 22.772 44.7983 22.064 45.2383C21.2213 45.7623 20.872 46.6823 20.9613 47.6463C21.032 48.4129 21.2747 49.2036 21.8507 49.7449C22.536 50.3876 23.4707 50.4636 24.3547 50.3169C26.1213 50.0249 27.8773 49.5743 29.6573 49.3729C30.1453 49.3183 30.7867 49.2516 31.2307 49.5369C31.44 49.6716 31.5133 49.8343 31.6253 50.0436C31.896 50.5489 32.18 50.9369 32.72 51.1689C33.3547 51.4423 34.0307 51.3209 34.52 50.9263C35.4747 51.1209 36.6587 50.2889 36.2493 49.0703Z" fill="#99147E"/>
</g>
<mask id="mask6_115_67267" style="mask-type:luminance" maskUnits="userSpaceOnUse" x="-578" y="-479" width="1124" height="794">
<path d="M-577.385 -478.707H545.135V315H-577.385V-478.707Z" fill="white"/>
</mask>
<g mask="url(#mask6_115_67267)">
<path d="M82.7356 51.4618C81.3876 47.9351 79.953 44.4418 78.441 40.9831C77.7463 39.3951 77.1463 37.6151 76.097 36.2218C75.057 34.8418 73.449 34.0258 72.009 33.1311L62.0036 26.9138C60.2263 25.8084 58.5956 28.6138 60.3663 29.7151L68.833 34.9764C70.1676 35.8058 71.653 36.5511 72.8863 37.5284C74.0383 38.4404 74.5236 40.0978 75.101 41.3978C76.4303 44.3884 77.6903 47.4098 78.885 50.4564C79.445 51.8844 80.0156 53.3138 80.521 54.7618C80.8116 55.5938 81.3503 56.8951 80.557 57.5738C78.9676 58.9338 81.2716 61.2204 82.8503 59.8684C85.4103 57.6751 83.7036 53.9938 82.7356 51.4618Z" fill="white"/>
</g>
<mask id="mask7_115_67267" style="mask-type:luminance" maskUnits="userSpaceOnUse" x="-578" y="-479" width="1124" height="794">
<path d="M-577.387 -478.707H545.133V315H-577.387V-478.707Z" fill="white"/>
</mask>
<g mask="url(#mask7_115_67267)">
<path d="M52.4661 60.4213C49.5701 61.5386 46.5874 62.3586 43.5274 62.88C41.4741 63.2306 42.3448 66.3573 44.3901 66.008C47.4488 65.4866 50.4328 64.6666 53.3288 63.5493C55.2568 62.8066 54.4181 59.668 52.4661 60.4213Z" fill="white"/>
</g>
<mask id="mask8_115_67267" style="mask-type:luminance" maskUnits="userSpaceOnUse" x="-578" y="-479" width="1124" height="794">
<path d="M-577.387 -478.707H545.133V315H-577.387V-478.707Z" fill="white"/>
</mask>
<g mask="url(#mask8_115_67267)">
<path d="M83.3881 56.8384C83.3347 57.1904 83.3334 57.2237 83.2081 57.4837C83.1827 57.537 83.0841 57.7064 83.0774 57.7277C83.0307 57.789 82.9827 57.849 82.9347 57.905C82.8561 57.9984 82.7707 58.0864 82.6867 58.1744C82.6507 58.2117 82.6281 58.237 82.6147 58.2544C82.5921 58.2677 82.5574 58.2877 82.5041 58.3237C82.2934 58.4624 82.0947 58.6157 81.8774 58.7464C81.8294 58.777 81.3467 59.0277 81.4094 59.0037C80.8787 59.253 80.3334 59.469 79.7841 59.673C78.3161 60.2197 76.8454 60.757 75.3747 61.297C69.3614 63.5077 63.3427 65.705 57.3227 67.8997C51.3547 70.0744 45.4174 72.3957 39.3854 74.385C37.8867 74.8797 36.3707 75.3344 34.8294 75.673C34.2041 75.8104 33.5454 75.9237 32.8961 76.0157C32.5307 76.0677 32.1627 76.117 31.7947 76.1477C31.6441 76.161 31.4921 76.1717 31.3401 76.177C31.3427 76.177 30.7321 76.1544 30.9694 76.1797C30.6401 76.145 30.6147 76.1224 30.3841 76.053C30.3361 76.037 30.3001 76.025 30.2721 76.0144C30.1494 75.9317 30.0414 75.825 29.9321 75.7264C29.9161 75.7117 29.9041 75.701 29.8934 75.6917C29.8881 75.685 29.8827 75.6797 29.8774 75.6717C29.7947 75.5677 29.7174 75.4624 29.6441 75.353C29.5494 75.2144 29.4667 75.0717 29.3787 74.929C29.3507 74.8784 29.3227 74.8277 29.2934 74.777C29.2907 74.7704 29.2881 74.765 29.2841 74.757C28.6374 73.4157 28.1214 71.9997 27.5547 70.6224C25.1201 64.717 22.6867 58.8117 20.2534 52.905C19.1241 50.1637 17.8041 47.317 17.3787 44.3997C17.3361 44.109 17.3161 43.8157 17.2814 43.525C17.2881 43.5224 17.2961 43.5197 17.3027 43.517C17.6974 43.3744 18.1014 43.2517 18.5001 43.1197C19.9827 42.6264 21.4641 42.1304 22.9441 41.629C34.9521 37.5597 46.8601 33.1984 58.6547 28.5504C59.8681 28.0717 61.0801 27.5877 62.2921 27.1037C64.7107 28.717 67.1307 30.329 69.5494 31.941C70.8334 32.797 72.1281 33.637 73.4001 34.5104C73.8827 34.8424 74.4054 35.1957 74.7987 35.6384C74.7827 35.629 74.9214 35.8144 74.9241 35.817C75.0027 35.9397 75.0854 36.057 75.1601 36.181C75.2547 36.337 75.3427 36.557 75.4667 36.905C75.9227 38.189 76.1227 39.5504 76.5267 40.8504C76.9601 42.2424 77.5201 43.593 78.1374 44.9117C79.3547 47.509 80.8121 50.0157 82.0254 52.5437C82.5894 53.7197 83.2707 55.1304 83.3747 56.2437C83.4121 56.641 83.4281 56.577 83.3881 56.8384ZM86.1161 51.993C85.4494 50.5397 84.7094 49.121 83.9654 47.7064C82.5907 45.0917 81.1987 42.509 80.2921 39.641C79.8694 38.3037 79.6641 36.901 79.1947 35.5797C78.6561 34.065 77.7294 32.793 76.4361 31.837C73.7827 29.873 70.9254 28.1424 68.1774 26.3117C66.7827 25.381 65.3881 24.4517 63.9934 23.5224C63.7067 23.3304 63.3934 23.1944 63.0747 23.1237C62.6374 22.941 62.1414 22.9077 61.6854 23.0904C49.2547 28.0744 36.6974 32.741 24.0281 37.0797C22.4227 37.6304 20.8161 38.1744 19.2081 38.713C18.4454 38.969 17.6841 39.2224 16.9214 39.4757C16.1801 39.7224 15.4041 39.9357 14.7601 40.397C13.2614 41.469 13.2067 43.289 13.4734 44.9424C13.7481 46.657 14.2227 48.3277 14.8161 49.9584C15.9574 53.0864 17.3147 56.1437 18.5827 59.221C19.8681 62.3397 21.1534 65.4597 22.4387 68.5784L24.3921 73.3197C24.9614 74.701 25.4694 76.157 26.2734 77.425C27.1121 78.7477 28.4134 79.7517 29.9761 80.0277C31.5827 80.3117 33.2867 79.9864 34.8654 79.673C38.1494 79.0197 41.3014 77.945 44.4427 76.8024C47.6521 75.6357 50.8601 74.4637 54.0694 73.2957C60.4281 70.9784 66.7881 68.661 73.1427 66.3304C76.1241 65.237 79.1667 64.2397 82.0974 63.0157C84.9707 61.8144 87.3934 59.7784 87.3441 56.409C87.3214 54.8704 86.7494 53.373 86.1161 51.993Z" fill="#99147E"/>
</g>
<mask id="mask9_115_67267" style="mask-type:luminance" maskUnits="userSpaceOnUse" x="-578" y="-479" width="1124" height="794">
<path d="M-577.387 -478.707H545.133V315H-577.387V-478.707Z" fill="white"/>
</mask>
<g mask="url(#mask9_115_67267)">
<path d="M33.6634 58.0119C33.2954 55.5052 32.5794 53.0225 31.0514 50.9639C30.7754 50.5919 30.3767 50.4025 29.9727 50.3745C29.6407 50.0239 29.1381 49.8519 28.5407 50.0839C27.8874 50.3399 27.2354 50.5985 26.5861 50.8625C25.9621 51.1172 25.2127 51.3225 24.6527 51.7079C23.2514 52.6705 24.2767 54.5825 24.6674 55.8265C25.0941 57.1825 25.5207 58.5372 25.9474 59.8932C26.3474 61.1639 26.6127 63.0345 28.3887 62.7185C29.6701 62.4905 30.9661 61.9052 32.1274 61.3345C32.8394 60.9852 33.5141 60.6079 33.7234 59.7759C33.8701 59.1985 33.7487 58.5905 33.6634 58.0119Z" fill="#99147E"/>
</g>
<mask id="mask10_115_67267" style="mask-type:luminance" maskUnits="userSpaceOnUse" x="-578" y="-479" width="1124" height="794">
<path d="M-577.387 -478.707H545.133V315H-577.387V-478.707Z" fill="white"/>
</mask>
<g mask="url(#mask10_115_67267)">
<path d="M51.9603 56.4065C50.4443 55.7265 48.9003 56.3185 47.4589 56.8772C46.9163 57.0879 46.4029 57.3132 45.8149 57.2505C45.4576 57.2132 45.3323 56.9625 45.0616 56.6025C44.5669 55.9465 43.9003 55.4972 43.0536 55.5012C42.5856 55.5039 42.0629 55.6119 41.6123 55.8319C40.5429 55.5265 39.2189 56.8012 39.9923 58.0412C40.8096 59.3519 41.4869 60.7239 42.0176 62.1759C42.2656 62.8545 42.3829 63.6972 42.8189 64.2839C43.4603 65.1492 44.6123 65.0772 45.5456 64.8545C47.0763 64.4892 48.5016 63.5385 49.9456 62.9212C51.3323 62.3279 53.2963 61.9839 53.7443 60.3092C54.1416 58.8225 53.3776 57.0412 51.9603 56.4065Z" fill="#99147E"/>
</g>
</g>
<defs>
<clipPath id="clip0_115_67267">
<rect width="71.5214" height="57.6734" fill="white" transform="translate(14 21)"/>
</clipPath>
</defs>
</svg>
