<svg width="100" height="100" viewBox="0 0 100 100" fill="none" xmlns="http://www.w3.org/2000/svg">
<rect width="100" height="100" fill="white"/>
<g clip-path="url(#clip0_115_63717)">
<mask id="mask0_115_63717" style="mask-type:luminance" maskUnits="userSpaceOnUse" x="-576" y="-385" width="1123" height="795">
<path d="M-575.697 -384.125H546.823V409.582H-575.697V-384.125Z" fill="white"/>
</mask>
<g mask="url(#mask0_115_63717)">
<path d="M75.9344 46.9561C74.1571 43.1534 75.3838 39.3014 77.3744 35.9694C80.8584 30.1321 81.0984 28.3468 81.2318 27.0948C81.5731 23.8548 80.4438 20.3747 78.0118 17.9961C74.1718 14.2427 66.7691 12.9841 61.0504 14.8628C56.4531 16.3721 54.8531 19.7081 54.3571 20.8507C53.5638 22.6814 52.4024 28.6161 52.3464 28.9214C50.9278 36.6027 46.5571 39.2934 41.8331 40.0134C33.9224 41.2201 25.5611 39.7281 18.9758 45.8467C9.83176 54.3428 8.29443 71.6987 15.6891 80.2161C22.4171 87.9667 35.8064 89.3147 46.0318 80.5867C49.4398 77.6787 51.8424 73.8094 57.1158 68.2707C59.3531 65.9214 63.3331 63.4281 67.1518 62.7787C69.2424 62.4241 72.0358 62.0668 76.5411 64.3694C77.9598 65.0948 80.0824 66.7441 82.3424 67.1174C85.8211 67.6921 88.3638 65.2387 88.5264 62.2481C88.6491 59.9867 87.1904 57.4041 85.3011 55.7001C83.0038 53.6281 78.3491 52.1227 75.9344 46.9561Z" fill="#0DAA54"/>
</g>
<mask id="mask1_115_63717" style="mask-type:luminance" maskUnits="userSpaceOnUse" x="-576" y="-385" width="1123" height="795">
<path d="M-575.697 -384.125H546.823V409.582H-575.697V-384.125Z" fill="white"/>
</mask>
<g mask="url(#mask1_115_63717)">
<path d="M72.9076 38.8146C72.6796 41.1653 70.6356 43.4946 69.1863 45.2466C67.6756 47.0733 66.0116 48.7666 64.293 50.3986C60.8276 53.6866 57.1396 56.7333 53.801 60.1559C52.541 61.4479 54.521 63.4319 55.7823 62.1373C59.4783 58.3506 63.605 55.0266 67.3756 51.3186C69.149 49.5733 70.8276 47.7386 72.333 45.7573C73.917 43.672 75.4516 41.4853 75.7103 38.8146C75.8836 37.0213 73.0796 37.0333 72.9076 38.8146Z" fill="white"/>
</g>
<mask id="mask2_115_63717" style="mask-type:luminance" maskUnits="userSpaceOnUse" x="-576" y="-385" width="1123" height="795">
<path d="M-575.697 -384.125H546.823V409.582H-575.697V-384.125Z" fill="white"/>
</mask>
<g mask="url(#mask2_115_63717)">
<path d="M30.6633 72.3319C29.2206 71.7812 28.1286 70.6772 27.0686 69.5945C25.7873 68.2879 24.5166 66.9692 23.2419 65.6559C20.7366 63.0772 18.2326 60.4972 15.7273 57.9185C14.4686 56.6212 12.4873 58.6052 13.7459 59.8999C16.5366 62.7732 19.3273 65.6479 22.1193 68.5225C24.4633 70.9359 26.6899 73.8012 29.9179 75.0345C31.6046 75.6785 32.3339 72.9705 30.6633 72.3319Z" fill="white"/>
</g>
<mask id="mask3_115_63717" style="mask-type:luminance" maskUnits="userSpaceOnUse" x="-576" y="-385" width="1123" height="795">
<path d="M-575.695 -384.125H546.825V409.582H-575.695V-384.125Z" fill="white"/>
</mask>
<g mask="url(#mask3_115_63717)">
<path d="M47.4818 10.5239C45.5978 11.8052 43.6205 12.7266 41.4951 13.5332C40.5485 13.8919 39.5951 14.2626 38.7058 14.7506C37.6951 15.3039 36.8151 16.0386 35.6871 16.3479C33.9498 16.8226 34.6871 19.5266 36.4325 19.0492C37.5631 18.7412 38.4645 18.1626 39.4525 17.5626C40.4978 16.9266 41.6005 16.4772 42.7445 16.0466C44.9191 15.2279 46.9698 14.2532 48.8965 12.9439C50.3791 11.9359 48.9791 9.50655 47.4818 10.5239Z" fill="#85C727"/>
</g>
<mask id="mask4_115_63717" style="mask-type:luminance" maskUnits="userSpaceOnUse" x="-576" y="-385" width="1123" height="795">
<path d="M-575.697 -384.125H546.823V409.582H-575.697V-384.125Z" fill="white"/>
</mask>
<g mask="url(#mask4_115_63717)">
<path d="M59.6303 21.9777C59.6943 20.1737 56.8917 20.1764 56.8277 21.9777C56.725 24.8777 56.7037 27.7764 56.7637 30.6777C56.8023 32.4791 59.605 32.4857 59.5663 30.6777C59.5063 27.7764 59.5277 24.8777 59.6303 21.9777Z" fill="white"/>
</g>
<mask id="mask5_115_63717" style="mask-type:luminance" maskUnits="userSpaceOnUse" x="-576" y="-385" width="1123" height="795">
<path d="M-575.697 -384.125H546.823V409.582H-575.697V-384.125Z" fill="white"/>
</mask>
<g mask="url(#mask5_115_63717)">
<path d="M49.8042 48.3398C49.8095 48.3198 49.8095 48.3225 49.8042 48.3398Z" fill="#99147E"/>
</g>
<mask id="mask6_115_63717" style="mask-type:luminance" maskUnits="userSpaceOnUse" x="-576" y="-385" width="1123" height="795">
<path d="M-575.695 -384.125H546.825V409.582H-575.695V-384.125Z" fill="white"/>
</mask>
<g mask="url(#mask6_115_63717)">
<path d="M74.6089 41.4418C74.6049 41.4552 74.5902 41.4872 74.5769 41.5152C74.5542 41.5618 74.5316 41.6098 74.5076 41.6565C74.4302 41.8098 74.3462 41.9605 74.2556 42.1072C74.1769 42.2365 74.0929 42.3618 74.0062 42.4858C73.9689 42.5392 73.9316 42.5925 73.8929 42.6445C73.8929 42.6405 73.7382 42.8405 73.7369 42.8418C73.3009 43.3698 72.8236 43.8618 72.3462 44.3538C70.3209 46.4405 68.1849 48.4165 66.1009 50.4458C64.0422 52.4498 62.0289 54.5112 60.2462 56.7685C59.7582 57.3872 59.2822 58.0152 58.8276 58.6565C58.6489 58.9072 58.4716 59.1592 58.2876 59.4058C58.2822 59.4112 58.2796 59.4152 58.2769 59.4205C58.2742 59.4245 58.2716 59.4272 58.2676 59.4312C58.2169 59.4938 58.1649 59.5578 58.1116 59.6205C57.9942 59.7605 57.8716 59.8965 57.7436 60.0258C57.6396 60.1298 57.5289 60.2272 57.4182 60.3245C57.5169 60.2352 57.2769 60.4232 57.2182 60.4592C57.1502 60.5005 57.0809 60.5405 57.0102 60.5778C56.9969 60.5845 56.9196 60.6192 56.8756 60.6392C56.8222 60.6565 56.7302 60.6872 56.7156 60.6912C56.6076 60.7232 56.4982 60.7512 56.3862 60.7752C56.3142 60.7898 56.2409 60.8032 56.1676 60.8152C56.1436 60.8165 56.1089 60.8178 56.0609 60.8205C55.9009 60.8298 55.7396 60.8405 55.5782 60.8432C55.1756 60.8512 54.7729 60.8365 54.3702 60.8272C51.0849 60.7418 47.7996 60.6565 44.5142 60.5725C42.8782 60.5298 41.2729 60.5018 39.7476 61.1818C38.5382 61.7192 37.5329 62.6672 36.6956 63.6752C36.3236 64.1245 35.9702 64.5912 35.6236 65.0605C34.4942 63.9885 33.3369 62.9432 32.1742 61.9058C29.1062 59.1658 25.9796 56.4592 23.2209 53.4005C23.5649 52.8218 23.9222 52.2525 24.2982 51.6952C24.4956 51.4018 24.6982 51.1125 24.9049 50.8245C25.0009 50.6912 25.0982 50.5578 25.1956 50.4258C25.2516 50.3498 25.3089 50.2738 25.3649 50.1992C25.3609 50.2058 25.5209 49.9965 25.5276 49.9858C25.9502 49.4432 26.3862 48.9098 26.8489 48.4005C27.0609 48.1672 27.2809 47.9405 27.5129 47.7272C27.6222 47.6245 27.7356 47.5272 27.8502 47.4312C27.7982 47.4778 28.0729 47.2698 28.1236 47.2365C28.2622 47.1458 28.4036 47.0618 28.5502 46.9845C28.6182 46.9498 28.6862 46.9152 28.7569 46.8832C28.7702 46.8792 28.7849 46.8738 28.8022 46.8685C28.9569 46.8165 29.1129 46.7685 29.2729 46.7298C29.3636 46.7085 29.4542 46.6885 29.5462 46.6725C29.5902 46.6645 29.7276 46.6458 29.7422 46.6418C30.4956 46.5632 31.2582 46.5752 32.0142 46.5605C33.6356 46.5285 35.2556 46.4978 36.8756 46.4738C40.1076 46.4245 43.3422 46.3872 46.5756 46.4325C46.8462 46.4352 47.1169 46.4432 47.3862 46.4605C47.5329 46.4698 47.6782 46.4858 47.8249 46.4965C47.8396 46.4978 47.8622 46.5005 47.8849 46.5032C47.9462 46.5125 48.0076 46.5218 48.0689 46.5325C48.3329 46.5805 48.5942 46.6418 48.8476 46.7258C48.9049 46.7445 48.9622 46.7658 49.0182 46.7858C49.1382 46.8472 49.2569 46.9072 49.3689 46.9792C49.3996 46.9978 49.4276 47.0178 49.4569 47.0378C49.4729 47.0512 49.4902 47.0645 49.5009 47.0765C49.5462 47.1258 49.6836 47.2925 49.6916 47.2845C49.7302 47.3525 49.7676 47.4245 49.8129 47.4805C49.8289 47.5485 49.8542 47.6218 49.8756 47.6872C49.8809 47.6992 49.8849 47.7112 49.8916 47.7232C49.8916 47.7645 49.8902 47.8072 49.8916 47.8258C49.8916 47.8552 49.8876 47.9752 49.8862 48.0485C49.8822 48.0765 49.8782 48.1045 49.8742 48.1178C49.8569 48.1832 49.8396 48.2472 49.8236 48.3112C49.8116 48.3605 49.7876 48.4058 49.7756 48.4538C49.7902 48.3912 49.7996 48.3565 49.8036 48.3392C49.7956 48.3712 49.7702 48.4525 49.7436 48.5005C49.6876 48.6032 49.4809 48.8432 49.6702 48.6418C49.6249 48.6898 49.5836 48.7405 49.5356 48.7872C49.5289 48.7938 49.4836 48.8298 49.4449 48.8605C49.3609 48.9005 49.1689 49.0072 49.2409 48.9858C49.0729 49.0458 48.8982 49.0698 48.7276 49.1205C48.7169 49.1232 48.7089 49.1258 48.7009 49.1285C48.6969 49.1285 48.6942 49.1285 48.6902 49.1298C48.5809 49.1392 48.4716 49.1498 48.3609 49.1565C48.1849 49.1672 48.0089 49.1725 47.8329 49.1765C47.3822 49.1872 46.9329 49.1952 46.4822 49.2045C44.6529 49.2405 42.8236 49.2778 40.9942 49.3152C40.3036 49.3285 39.6396 49.9125 39.6729 50.6365C39.7036 51.3418 40.2542 51.9752 40.9942 51.9592C42.2876 51.9338 43.5796 51.9072 44.8729 51.8818C44.9716 51.9072 45.0756 51.9245 45.1849 51.9298C48.4356 52.0725 51.6929 52.1352 54.9462 52.0778C56.5516 52.0498 58.1182 51.8338 59.5022 50.9592C60.7302 50.1832 61.7769 49.1192 62.7916 48.0898C64.8289 46.0245 66.7156 43.8125 68.8222 41.8165C69.3516 41.3152 69.8942 40.8272 70.4542 40.3605C70.5942 40.2445 70.7356 40.1285 70.8782 40.0152C70.9369 39.9685 70.9956 39.9218 71.0542 39.8752C71.0729 39.8632 71.0956 39.8472 71.1262 39.8258C71.4062 39.6272 71.6902 39.4352 71.9902 39.2672C72.1396 39.1832 72.2929 39.1058 72.4476 39.0298C72.4609 39.0232 72.5022 39.0072 72.5329 38.9938C72.5942 38.9712 72.6556 38.9472 72.7169 38.9258C72.8542 38.8805 72.9929 38.8405 73.1329 38.8085C73.1462 38.8045 73.1889 38.7965 73.2276 38.7872C73.2822 38.7818 73.4102 38.7658 73.4329 38.7645C73.5116 38.7618 73.5889 38.7658 73.6676 38.7645C73.6902 38.7645 73.7276 38.7685 73.7542 38.7738C73.8569 38.7965 73.9596 38.8218 74.0582 38.8565C73.9782 38.8352 74.2076 38.9592 74.2622 38.9792C74.3116 39.0312 74.3702 39.0845 74.4249 39.1312C74.4356 39.1405 74.4502 39.1565 74.4636 39.1725C74.4836 39.2018 74.5049 39.2325 74.5249 39.2632C74.5822 39.3538 74.6236 39.4538 74.6769 39.5458C74.6916 39.6138 74.7209 39.6792 74.7396 39.7458C74.7582 39.8152 74.8062 40.1325 74.8089 40.0725C74.8209 40.2938 74.8169 40.5098 74.8089 40.7338C74.7942 40.7952 74.7849 40.8592 74.7702 40.9205C74.7276 41.0978 74.6702 41.2698 74.6089 41.4418ZM35.8449 69.3552C35.7369 69.4658 35.6196 69.5672 35.5009 69.6672C34.6702 70.3618 33.8396 71.0378 33.0782 71.8125C32.3289 72.5738 31.7022 73.4618 30.9249 74.1952C30.8676 74.2498 30.8089 74.3018 30.7489 74.3538C30.7262 74.3685 30.6462 74.4258 30.6129 74.4472C30.5609 74.4792 30.5076 74.5098 30.4542 74.5378C30.5649 74.4765 30.3516 74.5725 30.2916 74.5938C30.2729 74.5938 30.2462 74.5952 30.2089 74.5965H30.1996C30.1836 74.5912 30.1489 74.5832 30.0942 74.5712C30.0822 74.5658 30.0702 74.5618 30.0569 74.5578C30.0396 74.5485 30.0116 74.5352 29.9702 74.5138C29.9369 74.4912 29.6196 74.2818 29.6862 74.3378C28.7569 73.6258 27.9196 72.7472 27.0596 71.9565C23.4742 68.6552 19.9542 65.2818 16.5902 61.7538C16.1542 61.2965 15.7169 60.8418 15.2916 60.3738C15.2049 60.2778 15.1196 60.1818 15.0356 60.0845C15.0102 60.0552 14.7862 59.7752 14.8036 59.8032C14.6356 59.5765 14.4796 59.3378 14.3489 59.0885C14.3382 59.0698 14.2396 58.8312 14.2476 58.8658C14.2156 58.7685 14.1876 58.6698 14.1622 58.5698C14.1889 58.6685 14.1396 58.4072 14.1382 58.3578C14.1382 58.3112 14.1396 58.2645 14.1422 58.2178C14.1462 58.2072 14.1556 58.1672 14.1702 58.0938C14.1742 58.0845 14.2902 57.8005 14.2556 57.8605C14.3262 57.7245 14.4049 57.5925 14.4889 57.4645C14.5556 57.3658 14.6249 57.2698 14.6956 57.1738C14.6622 57.2205 14.8996 56.9152 14.9262 56.8832C15.6862 55.9445 16.5209 55.0658 17.4169 54.2552C18.0769 53.6578 18.6236 53.2125 19.2529 52.7658C21.8849 56.1058 24.9716 59.0165 28.1396 61.8472C29.7809 63.3152 31.4369 64.7685 33.0489 66.2685C33.8369 67.0032 34.6156 67.7485 35.3742 68.5125C35.5356 68.6738 35.7009 68.8352 35.8502 69.0085C35.8316 68.9952 35.9329 69.1378 35.9702 69.1925C35.9409 69.2298 35.8689 69.3312 35.8449 69.3552ZM77.3036 39.0925C76.9289 37.6685 75.7982 36.4458 74.3102 36.1952C72.7236 35.9272 71.1742 36.5605 69.8942 37.4672C67.4342 39.2098 65.3729 41.4858 63.3289 43.6818C62.3009 44.7872 61.2729 45.8912 60.1929 46.9458C59.7076 47.4192 59.2156 47.8952 58.6836 48.3178C58.6582 48.3365 58.6049 48.3765 58.5916 48.3872C58.5209 48.4365 58.4516 48.4872 58.3809 48.5352C58.2396 48.6312 58.0956 48.7232 57.9476 48.8085C57.7996 48.8938 57.6489 48.9712 57.4956 49.0458C57.4836 49.0525 57.4529 49.0645 57.4262 49.0752C57.3316 49.1098 57.2356 49.1432 57.1396 49.1725C56.9622 49.2272 56.7836 49.2712 56.6022 49.3072C56.5116 49.3258 56.4209 49.3418 56.3302 49.3565C56.3222 49.3578 56.3156 49.3592 56.3089 49.3605C56.2982 49.3605 56.2862 49.3618 56.2689 49.3645C55.8756 49.4045 55.4809 49.4218 55.0849 49.4312C54.2836 49.4485 53.4809 49.4498 52.6782 49.4498C52.5249 49.4498 52.3729 49.4485 52.2196 49.4485C52.5862 48.5792 52.6516 47.5698 52.3396 46.6992C51.8076 45.2125 50.4329 44.3192 48.9316 44.0125C47.3862 43.6978 45.7756 43.7752 44.2076 43.7725C42.4316 43.7685 40.6569 43.7805 38.8822 43.8005C37.1076 43.8218 35.3329 43.8525 33.5582 43.8858C32.6649 43.9018 31.7702 43.9178 30.8769 43.9378C29.9956 43.9578 29.0782 44.0018 28.2316 44.2725C26.4942 44.8285 25.2382 46.1672 24.1169 47.5405C23.1436 48.7325 22.2409 49.9792 21.4209 51.2792C21.3556 51.1965 21.2889 51.1138 21.2249 51.0312C21.2169 51.0205 21.2102 51.0125 21.2049 51.0058C21.1569 50.9445 21.1102 50.8818 21.0622 50.8192C20.9969 50.7325 20.9236 50.6525 20.8436 50.5778C20.8142 50.4792 20.7716 50.3832 20.7129 50.2912C20.3382 49.7112 19.5249 49.4165 18.9036 49.8178C16.8729 51.1245 15.0129 52.7112 13.4422 54.5485C12.5449 55.5978 11.6276 56.6845 11.5049 58.1152C11.3916 59.4498 12.1169 60.6538 12.9156 61.6538C13.7009 62.6365 14.6209 63.5272 15.4956 64.4312C16.4102 65.3792 17.3369 66.3152 18.2729 67.2432C20.1276 69.0818 22.0182 70.8832 23.9302 72.6605C24.8769 73.5418 25.8289 74.4165 26.7849 75.2872C27.7702 76.1845 28.7822 77.2192 30.2089 77.2418C31.4596 77.2618 32.4982 76.4472 33.2822 75.5538C34.0636 74.6645 34.8196 73.7712 35.6902 72.9618C36.1276 72.5552 36.5809 72.1672 37.0489 71.7952C37.5129 71.4272 37.9676 71.0392 38.2702 70.5178C38.6329 69.8938 38.7542 69.0992 38.5049 68.4112C38.2942 67.8298 37.9262 67.3552 37.5089 66.9125C37.5636 66.8552 37.6169 66.7925 37.6662 66.7245C37.8422 66.4832 38.0196 66.2432 38.1996 66.0045C38.1982 66.0098 38.3876 65.7645 38.4116 65.7352C38.5262 65.5925 38.6436 65.4512 38.7636 65.3138C38.9609 65.0845 39.1662 64.8618 39.3809 64.6498C39.4942 64.5378 39.6102 64.4272 39.7302 64.3218C39.7889 64.2698 39.8502 64.2192 39.9102 64.1672C39.9356 64.1445 39.9542 64.1285 39.9689 64.1152C39.9822 64.1058 39.9969 64.0952 40.0156 64.0818C40.2556 63.9112 40.5022 63.7538 40.7636 63.6178C40.8329 63.5818 40.9062 63.5512 40.9742 63.5138C40.9769 63.5125 40.9782 63.5125 40.9796 63.5112C40.9822 63.5098 40.9836 63.5098 40.9849 63.5098C41.1702 63.4512 41.3476 63.3832 41.5356 63.3365C41.7022 63.2938 41.8729 63.2592 42.0422 63.2338C42.0676 63.2325 42.1009 63.2298 42.1462 63.2258C42.2396 63.2192 42.3329 63.2112 42.4262 63.2058C42.8236 63.1832 43.2222 63.1858 43.6209 63.1952C46.9969 63.2645 50.3729 63.3685 53.7489 63.4552C55.3542 63.4965 57.0622 63.6285 58.5022 62.7738C59.8196 61.9925 60.6182 60.6525 61.4996 59.4512C61.9356 58.8592 62.2049 58.5165 62.7129 57.9005C63.1876 57.3258 63.6769 56.7632 64.1782 56.2098C65.1649 55.1178 66.1942 54.0645 67.2422 53.0312C69.3596 50.9392 71.5516 48.9245 73.6449 46.8072C75.6796 44.7498 78.1396 42.2658 77.3036 39.0925Z" fill="#99147E"/>
</g>
<mask id="mask7_115_63717" style="mask-type:luminance" maskUnits="userSpaceOnUse" x="-576" y="-385" width="1123" height="795">
<path d="M-575.697 -384.125H546.823V409.582H-575.697V-384.125Z" fill="white"/>
</mask>
<g mask="url(#mask7_115_63717)">
<path d="M58.0542 31.0019C58.0289 31.0019 58.0022 31.0019 57.9769 31.0019C57.2369 30.9979 56.4982 30.9953 55.7595 30.9926V21.4846C56.3702 21.4819 56.9809 21.4779 57.5915 21.4753L58.0542 21.4726V31.0019ZM61.3835 35.9406C61.3835 35.9886 61.3849 36.0366 61.3849 36.0846C61.3822 36.3286 61.3715 36.5739 61.3542 36.8166C61.3395 37.0299 61.3262 37.2459 61.2889 37.4566C61.2769 37.5273 61.2595 37.5966 61.2422 37.6659C60.7382 37.6473 58.3315 37.7113 58.0889 37.7139C55.7675 37.7379 53.4462 37.7633 51.1249 37.7886C46.5329 37.8366 41.9409 37.8859 37.3502 37.9353C36.7062 37.9419 36.0635 37.9513 35.4209 37.9566C35.4075 37.7273 35.3929 37.4979 35.3822 37.2686C35.3662 36.9126 35.3515 36.5553 35.3475 36.1993C35.3475 36.1433 35.3529 36.0793 35.3502 36.0326C35.5182 36.0179 35.2449 36.0113 35.4662 36.0193C35.7529 36.0313 35.7982 36.0259 35.9995 36.0659C36.1902 36.1046 36.3835 36.0913 36.5569 36.0326C39.7409 36.0633 42.9249 36.0926 46.1089 36.1219C49.5449 36.1539 52.9849 36.2273 56.4209 36.1713C57.3729 36.1553 58.3262 36.1273 59.2782 36.0806C59.7409 36.0566 60.2035 36.0286 60.6662 35.9966C60.9049 35.9793 61.1449 35.9606 61.3835 35.9406ZM51.4035 30.9793V21.5059C52.2329 21.5019 53.0622 21.4979 53.8929 21.4939V30.9859C53.1889 30.9833 52.4862 30.9806 51.7822 30.9793C51.6555 30.9793 51.5289 30.9793 51.4035 30.9793ZM47.1249 30.9766V21.5273C47.9275 21.5233 48.7315 21.5193 49.5355 21.5153V30.9779C48.7315 30.9779 47.9275 30.9753 47.1249 30.9766ZM42.9235 30.9819V21.5473C43.1729 21.5459 43.4209 21.5446 43.6702 21.5433C44.1995 21.5406 44.7275 21.5379 45.2569 21.5353V30.9793C44.4795 30.9793 43.7009 30.9806 42.9235 30.9819ZM38.4889 30.9979V21.5686L41.0569 21.5566V30.9873C40.4502 30.9899 39.8449 30.9913 39.2395 30.9939C38.9889 30.9953 38.7395 30.9966 38.4889 30.9979ZM58.5955 32.8713C58.8542 32.8726 59.1115 32.8753 59.3702 32.8766C59.3995 32.8766 59.4275 32.8766 59.4569 32.8766C59.4555 33.0153 59.4542 33.1539 59.4502 33.2926C59.4395 33.5979 59.4195 33.9019 59.3929 34.2059C58.8915 34.2326 58.3902 34.2539 57.8889 34.2699C55.6209 34.3419 53.3529 34.3219 51.0849 34.3019C46.5435 34.2593 42.0035 34.2166 37.4622 34.1739C37.4675 33.7393 37.4742 33.3046 37.4822 32.8686C37.5782 32.8686 37.6729 32.8686 37.7689 32.8673C38.2075 32.8659 38.6462 32.8633 39.0849 32.8619C40.7875 32.8539 42.4915 32.8486 44.1942 32.8459C47.6009 32.8393 51.0089 32.8419 54.4155 32.8539C55.3435 32.8566 56.2729 32.8606 57.2022 32.8646C57.6662 32.8673 58.1315 32.8699 58.5955 32.8713ZM35.2969 19.7179C35.2889 19.6486 35.2795 19.5833 35.2782 19.5366C35.2729 19.3819 35.2689 19.2273 35.2662 19.0726C35.2555 18.6113 35.2529 18.1486 35.2569 17.6859C39.0089 15.8579 42.7795 14.0699 46.5715 12.3246C47.0289 12.1139 47.4835 11.8886 47.9489 11.6926C48.2955 11.5473 48.5835 11.4499 48.9409 11.5913C49.3222 11.7433 49.6835 11.9993 50.0382 12.2046C50.5022 12.4726 50.9649 12.7433 51.4302 13.0099C53.2075 14.0286 55.0222 14.8713 56.9329 15.6046C57.8622 15.9606 58.7622 16.3553 59.6342 16.8353C60.0595 17.0686 60.4769 17.3139 60.8929 17.5619C61.1009 17.6859 61.3102 17.8086 61.5155 17.9366C61.5262 17.9433 61.5649 17.9686 61.6035 17.9939C61.6035 17.9953 61.6022 17.9953 61.6022 17.9966C61.5462 18.1926 61.6102 18.5019 61.6129 18.7086C61.6155 18.9086 61.6222 19.1086 61.6195 19.3086C61.6169 19.4499 61.5969 19.5166 61.5875 19.5779C61.0102 19.5646 58.7609 19.6033 58.5195 19.6046C54.2915 19.6246 50.0635 19.6459 45.8355 19.6659C43.4662 19.6779 41.0969 19.6886 38.7275 19.7006C38.3795 19.7019 38.0329 19.7059 37.6862 19.7086C37.5915 19.6979 37.4969 19.6979 37.4022 19.7113C36.7009 19.7179 35.9982 19.7233 35.2969 19.7179ZM61.6929 18.0499C61.6409 18.0846 61.6262 18.0486 61.6235 18.0073C61.6595 18.0299 61.6929 18.0513 61.6929 18.0499ZM61.0729 21.4579C61.5889 21.4566 62.1275 21.4953 62.5942 21.2353C63.0569 20.9779 63.3329 20.4686 63.4222 19.9619C63.5089 19.4753 63.4835 18.9859 63.4769 18.4939C63.4689 17.8513 63.4742 17.2073 62.9862 16.7166C62.6662 16.3953 62.2209 16.1806 61.8355 15.9499C61.3369 15.6513 60.8342 15.3579 60.3222 15.0846C58.3809 14.0486 56.2502 13.4539 54.2929 12.4499C53.2969 11.9393 52.3289 11.3753 51.3609 10.8126C50.4702 10.2953 49.4995 9.56461 48.4169 9.65528C47.7155 9.71394 47.0902 10.0419 46.4609 10.3299C45.8595 10.6059 45.2595 10.8819 44.6582 11.1606C43.5049 11.6939 42.3529 12.2313 41.2022 12.7739C38.8555 13.8793 36.5155 15.0006 34.1849 16.1379C34.0489 16.2033 33.9449 16.3073 33.8689 16.4313C33.6035 16.5686 33.4035 16.8313 33.3969 17.2179C33.3862 17.7846 33.3849 18.3513 33.3955 18.9179C33.4062 19.5006 33.3275 20.2539 33.6035 20.7873C34.1529 21.8499 35.6315 21.5873 36.6222 21.5779V31.0259C36.6222 31.0406 36.6235 31.0539 36.6249 31.0686C36.3115 31.1379 36.0289 31.2846 35.8382 31.5939C35.5515 32.0579 35.6195 32.6526 35.6115 33.1753C35.6062 33.5033 35.6009 33.8326 35.5969 34.1606C35.0049 34.1499 34.4222 34.2806 33.9769 34.7193C33.5755 35.1139 33.4769 35.6606 33.4809 36.1993C33.4849 36.7593 33.5142 37.3206 33.5475 37.8793C33.5795 38.4273 33.5769 39.0059 33.9969 39.4206C34.4475 39.8646 35.0662 39.8273 35.6475 39.8206C36.7822 39.8086 37.9169 39.7966 39.0529 39.7846C43.5409 39.7366 48.0289 39.6886 52.5169 39.6406C54.7875 39.6153 57.0569 39.5913 59.3275 39.5673L60.8755 39.5513C61.4955 39.5446 62.1089 39.5206 62.5689 39.0393C63.2662 38.3086 63.2409 37.0273 63.2515 36.0846C63.2582 35.5233 63.3049 34.8406 62.8929 34.3993C62.4515 33.9273 61.8582 34.0339 61.2822 34.0819C61.2782 34.0819 61.2742 34.0819 61.2702 34.0833C61.2969 33.7473 61.3155 33.4113 61.3222 33.0739C61.3315 32.5486 61.3809 31.9686 61.0662 31.5193C60.7849 31.1153 60.3662 31.0339 59.9209 31.0153V21.4646L61.0729 21.4579Z" fill="#99147E"/>
</g>
<mask id="mask8_115_63717" style="mask-type:luminance" maskUnits="userSpaceOnUse" x="-576" y="-385" width="1123" height="795">
<path d="M-575.697 -384.125H546.823V409.582H-575.697V-384.125Z" fill="white"/>
</mask>
<g mask="url(#mask8_115_63717)">
<path d="M49.255 14.2789C48.895 14.1149 48.539 14.0616 48.207 14.1069C46.4737 14.0723 45.7924 16.2696 46.8884 17.4563C48.0564 18.7243 49.9777 17.7256 50.263 16.2283C50.4297 15.3563 50.0604 14.6456 49.255 14.2789Z" fill="#99147E"/>
</g>
</g>
<defs>
<clipPath id="clip0_115_63717">
<rect width="77.5346" height="72.5967" fill="white" transform="translate(11 14)"/>
</clipPath>
</defs>
</svg>
