<svg width="73" height="80" viewBox="0 0 73 80" fill="none" xmlns="http://www.w3.org/2000/svg">
<g clip-path="url(#clip0_115_56617)">
<mask id="mask0_115_56617" style="mask-type:luminance" maskUnits="userSpaceOnUse" x="-339" y="-281" width="1123" height="794">
<path d="M-338.523 -280.8H783.997V512.906H-338.523V-280.8Z" fill="white"/>
</mask>
<g mask="url(#mask0_115_56617)">
<path d="M67.2201 66.8491C57.7481 78.1624 35.2508 82.1997 22.6241 74.5651C9.99744 66.9304 8.28944 50.4837 15.0854 38.8544C15.7641 37.6917 17.5308 34.4744 18.4828 32.1091C19.4001 29.8344 19.5028 27.4184 18.0468 25.6384C16.9268 24.2691 14.7548 22.9344 10.3214 22.4371C7.76278 22.1491 6.01477 21.3984 5.02011 20.7597C0.261442 17.7011 -1.81589 9.36506 1.92011 4.01172C5.46545 -1.06694 12.0774 -0.574943 16.3281 1.40106C20.9894 3.57039 22.1588 8.21839 22.9534 10.9491C24.4708 16.1691 25.7241 17.8864 26.6774 19.0797C29.5761 22.7077 37.7108 23.9837 41.8908 24.9824C51.0841 27.1811 57.4841 29.0397 61.8588 31.9717C74.9894 40.7691 75.8401 56.5531 67.2201 66.8491Z" fill="#66CBBA"/>
</g>
<mask id="mask1_115_56617" style="mask-type:luminance" maskUnits="userSpaceOnUse" x="-339" y="-281" width="1123" height="794">
<path d="M-338.523 -280.8H783.997V512.906H-338.523V-280.8Z" fill="white"/>
</mask>
<g mask="url(#mask1_115_56617)">
<path d="M38.5463 45.2512C36.337 44.9992 33.9036 45.1085 31.817 45.9419C29.9596 46.6832 28.989 48.1872 28.7703 50.1405C28.5676 51.9552 28.797 53.9179 30.2076 55.2152C31.8156 56.6939 34.033 56.8459 36.1063 56.7112C37.721 56.6045 37.733 54.0779 36.1063 54.1845C34.7823 54.2712 33.2503 54.3739 32.129 53.5285C31.1103 52.7605 31.117 51.3032 31.3023 50.1445C31.769 47.2299 36.3636 47.5285 38.5463 47.7779C40.1596 47.9619 40.1463 45.4339 38.5463 45.2512Z" fill="white"/>
</g>
<mask id="mask2_115_56617" style="mask-type:luminance" maskUnits="userSpaceOnUse" x="-339" y="-281" width="1123" height="794">
<path d="M-338.523 -280.8H783.997V512.906H-338.523V-280.8Z" fill="white"/>
</mask>
<g mask="url(#mask2_115_56617)">
<path d="M30.0599 29.1136C27.0532 33.8843 25.3719 39.6483 21.0559 43.4883C19.8399 44.571 21.6319 46.3536 22.8426 45.275C27.3412 41.271 29.1106 35.3563 32.2412 30.3883C33.1106 29.0096 30.9252 27.7403 30.0599 29.1136Z" fill="white"/>
</g>
<mask id="mask3_115_56617" style="mask-type:luminance" maskUnits="userSpaceOnUse" x="-339" y="-281" width="1123" height="794">
<path d="M-338.523 -280.8H783.997V512.906H-338.523V-280.8Z" fill="white"/>
</mask>
<g mask="url(#mask3_115_56617)">
<path d="M22.4329 28.6859C21.5889 31.9259 20.2395 34.9486 18.4009 37.7472C17.5049 39.1099 19.6915 40.3766 20.5822 39.0219C22.5315 36.0552 23.9742 32.7939 24.8689 29.3579C25.2795 27.7832 22.8435 27.1112 22.4329 28.6859Z" fill="white"/>
</g>
<mask id="mask4_115_56617" style="mask-type:luminance" maskUnits="userSpaceOnUse" x="-339" y="-281" width="1123" height="794">
<path d="M-338.523 -280.8H783.997V512.906H-338.523V-280.8Z" fill="white"/>
</mask>
<g mask="url(#mask4_115_56617)">
<path d="M19.4097 15.9219C19.4097 15.9219 19.4137 15.8872 19.419 15.7912C19.419 15.7939 19.4177 15.7965 19.4177 15.7965C19.415 15.8379 19.4123 15.8805 19.4097 15.9219Z" fill="#99147E"/>
</g>
<mask id="mask5_115_56617" style="mask-type:luminance" maskUnits="userSpaceOnUse" x="-339" y="-281" width="1123" height="794">
<path d="M-338.521 -280.8H783.999V512.906H-338.521V-280.8Z" fill="white"/>
</mask>
<g mask="url(#mask5_115_56617)">
<path d="M45.7357 59.2719C45.0984 60.1079 44.477 60.9572 43.8344 61.7892C43.825 61.8012 43.809 61.8199 43.7864 61.8505C43.6957 61.9652 43.6037 62.0785 43.5104 62.1919C43.3624 62.3705 43.2104 62.5479 43.053 62.7199C42.8757 62.9132 42.693 63.0999 42.5024 63.2785C42.4397 63.3385 42.3757 63.3972 42.3104 63.4545C42.313 63.4519 41.909 63.7785 42.1104 63.6279C41.8957 63.7892 41.7064 63.9905 41.561 64.2159H19.8384L19.8224 62.3879L19.737 53.3279C19.845 53.2279 19.9464 53.1159 20.0384 52.9905C20.7437 52.0292 21.2797 51.3279 21.9437 50.4919C22.6477 49.6039 23.3664 48.7265 24.093 47.8572C25.5504 46.1172 27.0437 44.4079 28.5397 42.7012C31.5437 39.2759 34.5464 35.8505 37.3117 32.2252C38.437 30.7492 39.5157 29.2372 40.5304 27.6839C41.1997 28.3559 41.9357 28.9625 42.7024 29.5545C44.1797 30.6959 45.669 31.8212 47.1557 32.9505C50.113 35.1959 53.077 37.4332 56.049 39.6599C57.2757 40.5785 58.505 41.4945 59.733 42.4119C54.8344 47.8345 50.169 53.4625 45.7357 59.2719ZM48.5157 67.6052C48.5317 68.5799 48.5477 69.5545 48.5637 70.5292C48.585 71.8119 48.6077 73.0959 48.6277 74.3785C48.6304 74.5772 48.637 74.7772 48.6304 74.9772C48.629 74.9599 48.6237 75.0092 48.621 75.0599C48.6117 75.0652 48.6104 75.0679 48.6197 75.0679C48.6197 75.0692 48.6197 75.0705 48.6197 75.0719C48.549 75.0932 48.4784 75.1119 48.4064 75.1279C48.365 75.1372 48.3237 75.1439 48.2824 75.1505C45.829 75.2452 43.377 75.4359 40.9237 75.5412C38.413 75.6479 35.9024 75.7305 33.3904 75.7892C30.8784 75.8465 28.365 75.8799 25.853 75.8892C24.597 75.8932 23.3397 75.8919 22.0837 75.8839C21.785 75.8825 21.485 75.8812 21.185 75.8772C21.0464 75.8759 20.9064 75.8639 20.7677 75.8665C20.7397 75.8665 20.6437 75.8572 20.6064 75.8545C20.537 75.8399 20.4677 75.8239 20.397 75.8065C20.381 75.8012 20.3637 75.7959 20.3477 75.7905C20.3464 75.7892 20.3424 75.7865 20.337 75.7839C20.3397 75.7852 20.341 75.7879 20.3424 75.7892C20.3344 75.7865 20.3264 75.7839 20.317 75.7812C20.3104 75.7745 20.3024 75.7665 20.2944 75.7585C20.293 75.7572 20.2917 75.7572 20.2904 75.7559C20.2877 75.7532 20.2877 75.7519 20.2864 75.7505C20.2824 75.7452 20.2784 75.7425 20.2744 75.7385C20.261 75.7252 20.249 75.7132 20.2384 75.7052C20.2344 75.6959 20.2317 75.6865 20.2264 75.6759C20.201 75.6199 20.1664 75.5572 20.1344 75.4999C20.1317 75.4932 20.1304 75.4865 20.129 75.4799C20.0797 75.2799 20.0317 75.0772 19.9824 74.8785C19.9797 74.8719 19.9784 74.8665 19.977 74.8612C19.977 74.8545 19.977 74.8479 19.9757 74.8399C19.969 74.7465 19.9597 74.6532 19.953 74.5585C19.9384 74.3279 19.933 74.0959 19.929 73.8639C19.9104 72.5665 19.905 71.2679 19.893 69.9705C19.885 69.1825 19.8784 68.3932 19.8704 67.6052H48.5157ZM19.685 47.8065C23.489 43.0359 26.741 37.8545 29.2877 32.3065C29.781 31.2332 30.2477 30.1465 30.693 29.0519C31.9064 29.5625 33.1197 30.0719 34.333 30.5812C34.2784 30.6532 34.2224 30.7265 34.1677 30.7972C34.2144 30.7372 34.317 30.6065 34.105 30.8785C33.7397 31.3465 33.3704 31.8132 32.9984 32.2772C32.2877 33.1585 31.5664 34.0292 30.8357 34.8932C27.945 38.3132 24.9264 41.6239 22.0424 45.0492C21.2437 45.9959 20.4584 46.9532 19.6864 47.9212L19.685 47.8065ZM19.6024 38.9505C21.3317 35.9185 22.6384 32.6399 23.449 29.2439C24.4957 29.5305 25.541 29.8159 26.5864 30.1025C26.4077 30.4985 26.2184 30.9065 26.0144 31.3385C25.1984 33.0652 24.3144 34.7612 23.365 36.4199C22.4304 38.0519 21.4344 39.6492 20.377 41.2039C20.1304 41.5679 19.8824 41.9265 19.633 42.2785L19.6024 38.9505ZM63.357 41.0612C63.3424 41.0479 63.3264 41.0359 63.3117 41.0239C63.1757 40.8265 63.001 40.6465 62.7904 40.4892C57.0224 36.1972 51.2797 31.8705 45.5637 27.5079C45.353 27.3479 45.141 27.1865 44.9304 27.0252C44.8704 26.9799 44.8104 26.9332 44.7504 26.8879C44.721 26.8652 44.6757 26.8292 44.6517 26.8119C44.309 26.5412 43.969 26.2679 43.6397 25.9812C43.313 25.6945 42.9957 25.3972 42.6984 25.0812C42.317 24.6745 42.2837 24.6345 41.9984 24.2052C41.625 23.6425 40.9397 23.2865 40.281 23.3759C39.6677 23.3412 39.0677 23.6239 38.7224 24.1945C37.977 25.4252 37.1877 26.6279 36.365 27.8065C36.2784 27.7585 36.1877 27.7132 36.093 27.6732C34.1304 26.8492 32.1677 26.0252 30.2064 25.2012C29.3064 24.8225 28.4104 25.6212 28.121 26.3839C28.0477 26.5772 27.9757 26.7639 27.905 26.9465C26.1437 26.4652 24.3824 25.9839 22.621 25.5025C21.7917 25.2759 20.7064 25.7825 20.5357 26.6865C20.2704 28.0919 19.9344 29.4372 19.525 30.7399C19.481 26.1239 19.4344 21.5079 19.3944 16.8905C19.393 16.6185 19.3877 16.3465 19.3997 16.0745C19.4024 16.0239 19.4064 15.9732 19.4104 15.9225C19.4077 15.9225 19.4104 15.8505 19.4184 15.7972C19.4197 15.7865 19.4197 15.7759 19.421 15.7665C19.4197 15.7759 19.4197 15.7839 19.4197 15.7919C19.421 15.7812 19.4224 15.7719 19.425 15.7639C19.453 15.6559 19.485 15.5465 19.513 15.4372C19.517 15.4305 19.5224 15.4212 19.529 15.4105C19.533 15.4052 19.5357 15.3985 19.5397 15.3932C19.5397 15.3919 19.541 15.3905 19.5424 15.3905C19.6037 15.3559 19.6157 15.3439 19.577 15.3559C19.6904 15.3172 19.809 15.2892 19.9277 15.2679C19.8584 15.2825 20.0837 15.2545 20.1517 15.2505C20.281 15.2425 20.4117 15.2399 20.5424 15.2372C21.137 15.2239 21.733 15.2239 22.3277 15.2172C24.877 15.1892 27.4264 15.1625 29.9757 15.1345C34.9784 15.0812 39.9904 14.9385 44.993 14.9852C45.5784 14.9905 46.1637 15.0079 46.7477 15.0505C46.9904 15.0692 47.2344 15.0892 47.477 15.1185C47.5157 15.1239 47.5877 15.1359 47.617 15.1425C47.7664 15.1759 47.9144 15.2025 48.061 15.2452C48.1104 15.2585 48.1597 15.2732 48.209 15.2892C48.197 15.2932 48.3064 15.3492 48.3717 15.3812C48.3744 15.3839 48.377 15.3865 48.3797 15.3892C48.393 15.4119 48.413 15.4452 48.4424 15.4905C48.4397 15.4732 48.4384 15.4572 48.437 15.4452C48.441 15.4479 48.4437 15.4505 48.4464 15.4532C48.4704 15.5945 48.513 15.9065 48.4917 15.7599C48.4557 15.5119 48.5104 16.0252 48.509 16.0079C48.5224 16.1959 48.5317 16.3852 48.541 16.5732C48.6744 19.0892 48.6917 21.6105 48.593 24.1279C48.5464 25.3519 48.469 26.5759 48.369 27.7972C48.2957 28.6825 49.1997 29.5305 50.0637 29.4919C51.0437 29.4479 51.6797 28.7452 51.7584 27.7972C51.9824 25.0825 52.0784 22.3585 52.0357 19.6345C52.0157 18.3505 52.001 17.0505 51.8797 15.7705C51.7477 14.3599 51.245 13.0599 49.9237 12.3599C48.7597 11.7439 47.3557 11.6772 46.0664 11.6212C44.7824 11.5665 43.4957 11.5999 42.2117 11.6132C39.5264 11.6425 36.841 11.6719 34.157 11.6999L26.2024 11.7852C24.8437 11.7999 23.4837 11.8145 22.1237 11.8292C20.917 11.8425 19.5677 11.7225 18.4277 12.1852C17.025 12.7559 16.2744 13.9172 16.077 15.3879C15.9117 16.6239 16.0144 17.9025 16.0264 19.1452C16.0517 21.8439 16.077 24.5425 16.1024 27.2399L16.405 59.5185C16.4304 62.2505 16.4557 64.9839 16.4824 67.7159C16.4944 69.0132 16.5064 70.3119 16.5184 71.6092C16.529 72.7759 16.4744 73.9625 16.6197 75.1212C16.7664 76.2959 17.1144 77.5239 18.0717 78.3065C19.217 79.2452 20.569 79.2639 21.9824 79.2732C24.6637 79.2905 27.3464 79.2799 30.029 79.2412C35.393 79.1639 40.7557 78.9759 46.1117 78.6745C47.2757 78.6092 48.5984 78.6745 49.7104 78.2812C51.2237 77.7479 51.981 76.4999 52.0224 74.9239C52.0917 72.2852 51.9397 69.6225 51.8957 66.9839C51.8744 65.6679 51.8517 64.3505 51.8304 63.0332C51.8157 62.1479 51.061 61.2972 50.1357 61.3385C49.229 61.3799 48.425 62.0839 48.4397 63.0332C48.4464 63.4279 48.453 63.8212 48.4597 64.2159H46.189C46.7344 63.5505 47.2477 62.8519 47.7744 62.1532C48.977 60.5599 50.0437 59.1812 51.2837 57.6145C53.737 54.5185 56.2624 51.4785 58.8557 48.4985C60.3344 46.7999 61.8357 45.1199 63.357 43.4585C63.957 42.8052 64.0517 41.6999 63.357 41.0612Z" fill="#99147E"/>
</g>
<mask id="mask6_115_56617" style="mask-type:luminance" maskUnits="userSpaceOnUse" x="-339" y="-281" width="1123" height="794">
<path d="M-338.523 -280.8H783.997V512.906H-338.523V-280.8Z" fill="white"/>
</mask>
<g mask="url(#mask6_115_56617)">
<path d="M20.3374 75.7812C20.2881 75.7253 20.2174 75.6546 20.2854 75.7479C20.2894 75.7506 20.2907 75.7533 20.2947 75.7559C20.3134 75.7666 20.3281 75.7759 20.3374 75.7812Z" fill="#99147E"/>
</g>
<mask id="mask7_115_56617" style="mask-type:luminance" maskUnits="userSpaceOnUse" x="-339" y="-281" width="1123" height="794">
<path d="M-338.523 -280.8H783.997V512.906H-338.523V-280.8Z" fill="white"/>
</mask>
<g mask="url(#mask7_115_56617)">
<path d="M40.9583 52.5592C40.9463 52.7498 40.9303 52.9405 40.9117 53.1312C40.9143 53.0965 40.9437 52.9245 40.9143 53.1125C40.8943 53.2472 40.8703 53.3805 40.841 53.5138C40.801 53.6978 40.7517 53.8805 40.693 54.0605C40.677 54.1085 40.661 54.1565 40.6437 54.2045C40.6317 54.2272 40.585 54.3298 40.5743 54.3485C40.4957 54.4845 40.409 54.6165 40.329 54.7512C40.2757 54.8125 40.2223 54.8738 40.165 54.9325C40.0837 55.0165 39.997 55.0952 39.909 55.1725C40.0077 55.0832 39.7957 55.2592 39.705 55.3178C39.5783 55.3978 39.4503 55.4712 39.3183 55.5405C39.2463 55.5778 39.173 55.6125 39.0997 55.6472C38.8077 55.7392 38.5237 55.8445 38.2263 55.9178C38.073 55.9552 37.9197 55.9872 37.7663 56.0152C37.6823 56.0312 37.5997 56.0432 37.5157 56.0578C36.8583 56.1085 36.2103 56.1432 35.5503 56.1125C34.6263 56.0685 34.349 56.0498 33.4557 55.8272C33.1223 55.7445 32.7957 55.6432 32.4743 55.5218C32.493 55.5258 32.2637 55.4312 32.213 55.4058C32.0023 55.3018 31.7983 55.1872 31.5997 55.0605C31.5397 55.0218 31.2397 54.7978 31.3143 54.8645C31.2197 54.7845 31.1263 54.7032 31.037 54.6165C30.9303 54.5138 30.8277 54.4058 30.7303 54.2952C30.6903 54.2498 30.653 54.1965 30.6103 54.1538C30.605 54.1432 30.5983 54.1325 30.5903 54.1192C30.433 53.8685 30.273 53.6245 30.1423 53.3578C30.1183 53.3098 30.097 53.2592 30.073 53.2112C30.033 53.0498 29.9583 52.8938 29.9103 52.7338C29.8277 52.4538 29.789 52.1658 29.7183 51.8845C29.7117 51.8258 29.705 51.7672 29.701 51.7085C29.6877 51.5365 29.681 51.3645 29.6797 51.1925C29.6783 50.9352 29.6943 50.6792 29.7183 50.4232C29.7183 50.4525 29.7477 50.2338 29.7677 50.1378C29.8023 49.9685 29.8423 49.8005 29.889 49.6352C29.9303 49.4898 29.9757 49.3458 30.0263 49.2032C30.0463 49.1445 30.069 49.0872 30.0917 49.0285C30.2357 48.7458 30.373 48.4658 30.5477 48.1992C30.597 48.1232 30.6503 48.0512 30.6997 47.9765C30.7117 47.9592 30.721 47.9458 30.729 47.9338C30.7343 47.9285 30.7397 47.9218 30.749 47.9125C30.8743 47.7765 30.989 47.6325 31.1183 47.4992C31.2463 47.3658 31.3797 47.2378 31.517 47.1152C31.569 47.0685 31.621 47.0245 31.673 46.9792C31.6983 46.9578 31.717 46.9405 31.733 46.9258C32.0343 46.7112 32.3397 46.5072 32.665 46.3285C32.8477 46.2285 33.0357 46.1365 33.225 46.0472C33.229 46.0445 33.2463 46.0378 33.2663 46.0285C33.3303 46.0045 33.4943 45.9418 33.4903 45.9432C33.8423 45.8138 34.2023 45.7072 34.5663 45.6232C34.7503 45.5805 34.9343 45.5485 35.1183 45.5125C35.1423 45.5072 35.1917 45.5005 35.2277 45.4952C35.2837 45.4898 35.3383 45.4832 35.393 45.4778C35.7917 45.4405 36.1903 45.4285 36.5903 45.4432C36.7197 45.4472 36.8477 45.4552 36.977 45.4658C37.1823 45.5658 37.413 45.6258 37.6637 45.6312C37.7463 45.6338 37.8317 45.6418 37.9143 45.6418C38.053 45.6725 38.1903 45.7005 38.3263 45.7418C38.3943 45.7632 38.461 45.7872 38.5277 45.8112C38.6863 45.9018 38.8503 45.9778 39.005 46.0765C39.0903 46.1298 39.397 46.3845 39.1903 46.1978C39.3117 46.3085 39.437 46.4138 39.5543 46.5298C39.6703 46.6472 39.781 46.7698 39.8877 46.8952C40.0877 47.1285 39.9343 46.9605 39.8983 46.9085C39.9517 46.9858 40.0063 47.0632 40.0583 47.1418C40.4957 47.8205 40.653 48.2978 40.8277 49.1498C40.9237 49.6125 40.9197 49.5978 40.957 50.0845C40.989 50.5138 40.9997 50.9458 40.997 51.3778C40.9943 51.7712 40.9823 52.1658 40.9583 52.5592ZM42.921 45.7138C41.9783 44.1285 40.4423 42.9165 38.649 42.5552C38.553 42.5098 38.4503 42.4765 38.3397 42.4565C34.8797 41.8472 31.0077 42.7818 28.6303 45.5005C26.3357 48.1245 25.8343 51.9698 27.4477 55.0792C29.2117 58.4792 33.3557 59.5005 36.9117 59.2952C38.573 59.1992 40.3183 58.8312 41.6743 57.8138C43.421 56.5045 44.029 54.5925 44.1503 52.4778C44.2797 50.1965 44.1143 47.7232 42.921 45.7138Z" fill="#99147E"/>
</g>
</g>
<defs>
<clipPath id="clip0_115_56617">
<rect width="72.8643" height="79.2788" fill="white"/>
</clipPath>
</defs>
</svg>
