<svg width="27" height="42" viewBox="0 0 27 42" fill="none" xmlns="http://www.w3.org/2000/svg">
<path d="M17.3162 4.34512C17.8136 4.57945 18.1867 5.01686 18.311 5.56362C18.4509 6.36033 19.1815 10.3126 20.8447 15.0148C21.8395 17.8267 23.2074 20.8886 24.7618 23.8567C20.8136 13.7494 20.1918 5.78233 20.2074 1.5332C20.2074 1.12704 20.0053 0.783357 19.6633 0.580273C19.3058 0.37719 18.9017 0.392812 18.5597 0.595895L2.90686 10.1721L3.2022 11.1875L15.7618 4.40761C16.026 4.26702 16.3058 4.18891 16.6012 4.18891C16.8499 4.18891 17.0986 4.23577 17.3317 4.34512H17.3162Z" fill="#BA047F"/>
<path d="M16.9741 8.7803C16.8808 8.43662 16.6477 8.17105 16.3212 8.03045C15.9948 7.88985 15.6373 7.90547 15.342 8.07731L0 16.4662C0 16.5599 0 16.6537 0 16.7474C0.202073 17.4035 1.25907 20.2779 4.60104 21.2777L13.0104 23.4648L9.26425 19.6999C8.6114 19.0438 8.58031 17.9815 9.20207 17.341C9.82383 16.7005 10.8497 16.7162 11.5026 17.3723L18.1088 24.0115C18.7617 24.6677 18.7927 25.7299 18.1865 26.3704L11.7979 31.8224C11.1917 32.4629 10.1503 32.4629 9.49741 31.7912C8.84456 31.1351 8.81347 30.0728 9.41969 29.4323L13.057 26.4642L5.09845 23.8866C2.42487 23.1836 0.823834 21.6214 0.15544 18.8563C1.25907 27.2765 8.09845 35.4154 11.2073 39.1022C11.5026 39.4459 11.7668 39.7583 11.9845 40.0395C12.3264 40.4144 13.2902 41.4767 13.5544 41.711C13.7876 41.9297 14.1606 41.9766 14.487 41.836C16.7254 40.8987 19.0104 39.4927 21.3109 37.6494C22.0881 37.0245 22.8653 36.3527 23.6425 35.6341C24.8083 34.5562 25.9275 33.3846 27 32.1349C21.4508 23.746 18.1244 13.0138 16.943 8.74905L16.9741 8.7803Z" fill="#BA047F"/>
<path d="M26.5337 2.61254C26.5959 2.31572 26.5026 2.01891 26.2694 1.83145C26.0363 1.64398 25.7409 1.59712 25.4611 1.72209L22.3368 3.09681C22.3368 4.72148 22.4456 6.40863 22.6632 8.14265C23.0985 11.6732 23.9378 16.6565 26.2383 22.7959C24.4041 14.1258 25.7254 6.14306 26.5337 2.61254Z" fill="#BA047F"/>
</svg>
