<svg width="100" height="100" viewBox="0 0 100 100" fill="none" xmlns="http://www.w3.org/2000/svg">
<rect width="100" height="100" fill="#E5902F"/>
<path d="M55.0122 25.6472C55.7307 25.9856 56.2695 26.6175 56.4492 27.4072C56.6512 28.558 57.7065 34.2669 60.1089 41.0589C61.5459 45.1206 63.5217 49.5433 65.7669 53.8306C60.064 39.2312 59.1659 27.7231 59.1884 21.5855C59.1884 20.9988 58.8965 20.5024 58.4025 20.209C57.8861 19.9157 57.3024 19.9383 56.8084 20.2316L34.1987 34.0638L34.6253 35.5306L52.767 25.7374C53.1486 25.5343 53.5528 25.4215 53.9794 25.4215C54.3386 25.4215 54.6979 25.4892 55.0347 25.6472H55.0122Z" fill="white"/>
<path d="M54.5181 32.0542C54.3834 31.5578 54.0466 31.1741 53.5751 30.9711C53.1036 30.768 52.5872 30.7905 52.1606 31.0388L30 43.1561C30 43.2914 30 43.4268 30 43.5622C30.2919 44.5099 31.8187 48.6619 36.6459 50.106L48.7927 53.2651L43.3817 47.827C42.4387 46.8793 42.3938 45.3448 43.2919 44.4197C44.19 43.4945 45.6718 43.5171 46.6149 44.4648L56.1572 54.0549C57.1002 55.0026 57.1451 56.537 56.2694 57.4621L47.0414 65.3373C46.1658 66.2624 44.6615 66.2624 43.7185 65.2921C42.7755 64.3444 42.7306 62.81 43.6062 61.8848L48.8601 57.5975L37.3644 53.8743C33.5026 52.8589 31.19 50.6024 30.2245 46.6085C31.8187 58.7709 41.6978 70.5272 46.1883 75.8525C46.6149 76.3489 46.9965 76.8002 47.3109 77.2063C47.8048 77.7479 49.1969 79.2823 49.5786 79.6208C49.9154 79.9367 50.4542 80.0044 50.9257 79.8013C54.1589 78.4474 57.4594 76.4166 60.7824 73.7539C61.905 72.8513 63.0276 71.8811 64.1503 70.8431C65.8342 69.2861 67.4508 67.5937 69 65.7886C60.9845 53.6713 56.1796 38.1692 54.4732 32.009L54.5181 32.0542Z" fill="white"/>
<path d="M68.3265 23.1428C68.4163 22.7141 68.2816 22.2853 67.9448 22.0146C67.608 21.7438 67.1814 21.6761 66.7772 21.8566L62.2643 23.8423C62.2643 26.1891 62.4214 28.626 62.7358 31.1307C63.3645 36.2304 64.5769 43.4286 67.8999 52.2965C65.2505 39.7731 67.1589 28.2424 68.3265 23.1428Z" fill="white"/>
</svg>
