<svg width="598" height="136" viewBox="0 0 598 136" fill="none" xmlns="http://www.w3.org/2000/svg">
<path d="M56.7585 12.8147C58.3889 13.5828 59.6117 15.0166 60.0193 16.8087C60.4778 19.4202 62.8725 32.375 68.3241 47.7876C71.5849 57.0045 76.0685 67.0407 81.1635 76.7696C68.2222 43.6401 66.1842 17.5256 66.2352 3.59788C66.2352 2.26655 65.5728 1.14005 64.4519 0.474382C63.2801 -0.19128 61.9554 -0.140075 60.8345 0.525587L9.52783 31.9141L10.4959 35.2425L51.6635 13.0196C52.5296 12.5587 53.4467 12.3027 54.4148 12.3027C55.23 12.3027 56.0452 12.4563 56.8094 12.8147H56.7585Z" fill="white"/>
<path d="M55.6374 27.357C55.3317 26.2305 54.5674 25.36 53.4975 24.8992C52.4275 24.4384 51.2557 24.4896 50.2876 25.0528L0 52.5498C0 52.857 0 53.1643 0 53.4715C0.66235 55.6221 4.12695 65.0438 15.0812 68.3209L42.6451 75.4896L30.3662 63.1492C28.2263 60.9986 28.1244 57.5167 30.1624 55.4173C32.2004 53.3179 35.5631 53.3691 37.703 55.5197L59.3567 77.2817C61.4966 79.4323 61.5985 82.9143 59.6115 85.0137L38.671 102.884C36.684 104.984 33.2703 104.984 31.1304 102.782C28.9905 100.631 28.8886 97.1492 30.8757 95.0498L42.798 85.3209L16.7116 76.8721C7.9482 74.5679 2.70035 69.4474 0.5095 60.3841C4.12695 87.9835 26.5449 114.661 36.7349 126.746C37.703 127.872 38.5691 128.896 39.2824 129.818C40.4033 131.047 43.5622 134.529 44.4284 135.297C45.1926 136.014 46.4154 136.167 47.4854 135.706C54.8222 132.634 62.3118 128.026 69.8524 121.984C72.3999 119.935 74.9474 117.734 77.4949 115.378C81.3162 111.845 84.9846 108.005 88.5001 103.908C70.311 76.4113 59.4077 41.2335 55.5355 27.2546L55.6374 27.357Z" fill="white"/>
<path d="M86.9718 7.13094C87.1756 6.15805 86.8699 5.18516 86.1057 4.5707C85.3414 3.95624 84.3734 3.80263 83.4563 4.21227L73.2153 8.71829C73.2153 14.0436 73.572 19.5737 74.2853 25.2574C75.7119 36.8297 78.4632 53.1641 86.0038 73.2876C79.9917 44.8689 84.3224 18.7032 86.9718 7.13094Z" fill="white"/>
<path d="M409.027 78.1007C409.027 94.6911 397.767 108.107 379.17 108.107C360.573 108.107 349.415 94.6911 349.415 78.1007C349.415 61.5104 360.828 48.0947 379.068 48.0947C397.308 48.0947 409.077 61.664 409.077 78.1007M363.528 78.1007C363.528 86.8568 368.776 95.0495 379.119 95.0495C389.462 95.0495 394.71 86.8568 394.71 78.1007C394.71 69.3447 388.647 61.0495 379.119 61.0495C368.878 61.0495 363.528 69.4471 363.528 78.1007Z" fill="white"/>
<path d="M457.786 106.878V76.7181C457.786 67.962 452.996 61.3054 443.927 61.3054C434.858 61.3054 429.254 67.5012 429.254 76.2572V106.878H415.191V49.1699H428.795V55.8265C434.603 50.0916 440.412 48.3506 447.647 48.3506C461.148 48.3506 471.95 58.5403 471.95 76.6157V106.878H457.786Z" fill="white"/>
<path d="M492.585 83.1699C493.502 90.2873 499.667 95.459 509.653 95.459C514.901 95.459 521.728 93.462 524.989 90.0825L534.058 99.0946C527.995 105.393 518.111 108.465 509.398 108.465C489.63 108.465 477.911 96.1759 477.911 77.7422C477.911 59.3084 489.782 47.5825 508.379 47.5825C526.976 47.5825 539.561 59.5132 537.319 83.2211H492.534L492.585 83.1699ZM523.766 71.3416C522.849 63.8657 517.041 60.1277 508.889 60.1277C501.195 60.1277 494.928 63.8657 492.839 71.3416H523.766Z" fill="white"/>
<path d="M598 49.2725L562.997 130.944H547.407L558.106 105.956L535.229 49.2725H551.737L560.45 74.158L565.901 90.3899L571.812 74.5164L582.307 49.2725H598Z" fill="white"/>
<path d="M229.784 53.5735V48.1458H214.397V106.775H229.784V76.0012C229.784 66.8867 237.223 63.6608 243.592 63.6608H244.764V48.2994H243.592C239.006 48.2994 233.962 48.965 229.784 53.5735Z" fill="white"/>
<path d="M195.546 48.1971V45.5344C195.546 39.7483 199.622 37.188 203.647 37.188H204.819V23.5164H203.647C191.98 23.5164 180.159 31.0947 180.159 45.5344V48.1971H175.013V62.176H180.159V106.775H195.546V62.0224H208.334V48.1459H195.546V48.1971Z" fill="white"/>
<path d="M153.563 48.197V54.4952C149.08 50.5524 143.373 48.197 136.852 48.197C121.465 48.197 108.218 59.9229 108.218 77.5885C108.218 95.2542 120.191 106.878 135.578 106.878C142.456 106.878 148.723 104.266 153.563 99.9138V106.775H169.103V48.1458H153.563V48.197ZM137.463 93.462C129.311 93.462 122.739 86.5494 122.739 77.947C122.739 69.3446 129.362 62.4319 137.463 62.4319C145.564 62.4319 152.188 69.3446 152.188 77.947C152.188 86.5494 145.564 93.462 137.463 93.462Z" fill="white"/>
<path d="M266.01 48.197H250.623V106.775H266.01V48.197Z" fill="white"/>
<path d="M319.406 48.4533C311.967 48.4533 305.343 50.8087 300.197 58.9503C296.937 51.0135 290.058 48.1973 283.231 48.1973C280.531 48.1973 277.576 48.7605 274.926 49.9894V62.9443C276.506 62.0738 278.289 61.5617 280.327 61.5617C288.122 61.5617 292.096 68.4744 292.096 76.0527V106.878H306.261V76.0527C306.261 68.4744 311.05 61.8177 318.692 61.8177C326.335 61.8177 329.494 68.2696 329.494 75.8479V106.929H343.658V75.8479C343.658 58.5406 335.659 48.5045 319.355 48.5045L319.406 48.4533Z" fill="white"/>
</svg>
